<?xml version="1.0" encoding="utf-8"?>
<!-- Generator: Adobe Illustrator 20.1.0, SVG Export Plug-In . SVG Version: 6.00 Build 0)  -->
<svg version="1.1" id="Layer_1" xmlns="http://www.w3.org/2000/svg" xmlns:xlink="http://www.w3.org/1999/xlink" x="0px" y="0px"
	 viewBox="0 0 600 600" style="enable-background:new 0 0 600 600;" xml:space="preserve">
<style type="text/css">
	.st0{fill:#142A35;}
	.st1{clip-path:url(#SVGID_2_);fill:none;}
	.st2{clip-path:url(#SVGID_2_);fill:#FF0000;}
	.st3{clip-path:url(#SVGID_2_);fill:#FFFFFF;}
	.st4{fill:#0C56B1;}
	.st5{fill:#FFFFFF;}
	.st6{clip-path:url(#SVGID_4_);}
	.st7{fill:#FF0000;}
	.st8{clip-path:url(#SVGID_4_);fill:none;}
</style>
<path class="st0" d="M300,597.5L300,597.5C135.7,597.5,2.5,464.3,2.5,300v0C2.5,135.7,135.7,2.5,300,2.5h0
	c164.3,0,297.5,133.2,297.5,297.5v0C597.5,464.3,464.3,597.5,300,597.5z"/>
<g>
	<g>
		<defs>
			<path id="SVGID_1_" d="M500,226.1c0-100.6-71.9-110.5-126.5-65.7c-34.8,28.5-79.9,80.1-79.9,31c0-116.4-114.5-65-193.7,34.8
				l1.2,249.2c76.9-99.7,193.2-151.1,193.2-34.8c0,49.1,44.6-1.9,79.3-30.3c49.6-40.6,113.4-35.2,124.8,40.8h1.5V226.1z"/>
		</defs>
		<clipPath id="SVGID_2_">
			<use xlink:href="#SVGID_1_"  style="overflow:visible;"/>
		</clipPath>
		<path class="st1" d="M500,205.2c0-100.6-71.9-110.5-126.5-65.7c-34.8,28.5-79.9,80.1-79.9,31c0-116.4-114.5-65-193.7,34.8
			l1.2,249.2c76.9-99.7,193.2-151.1,193.2-34.8c0,49.1,44.6-2.5,79.3-30.9c49.6-40.6,113.4-34.8,124.8,40.2h1.5V205.2z"/>
		<path class="st2" d="M500,205.2c0-100.6-71.9-110.5-126.5-65.7c-34.8,28.5-79.9,80.1-79.9,31c0-116.4-114.5-65-193.7,34.8
			l1.2,249.2c76.9-99.7,193.2-151.1,193.2-34.8c0,49.1,44.6-2.5,79.3-30.9c49.6-40.6,113.4-34.8,124.8,40.2h1.5V205.2z"/>
		<path class="st3" d="M500,271.9c0-100.6-71.9-110.5-126.5-65.7c-34.8,28.5-79.9,80.1-79.9,31c0-116.4-114.5-65-193.7,34.8
			l1.2,249.2c76.9-99.7,193.2-151.1,193.2-34.8c0,49.1,44.6-2.3,79.3-30.8C423.2,415,487.1,421,498.5,496h1.5V271.9z"/>
		<path class="st2" d="M500,321.9c0-100.6-71.9-110.5-126.5-65.7c-34.8,28.5-79.9,80.1-79.9,31c0-116.4-114.5-65-193.7,34.8
			l1.2,249.2c76.9-99.7,193.2-151.1,193.2-34.8c0,49.1,44.6-2.8,79.3-31.3c49.6-40.6,113.4-34.1,124.8,39.9h1.5V321.9z"/>
		<path class="st3" d="M500,380.3c0-100.6-71.9-110.5-126.5-65.7c-34.8,28.5-79.9,80.1-79.9,31c0-116.4-114.5-65-193.7,34.8
			l1.2,249.2c76.9-99.7,193.2-151.1,193.2-34.8c0,49.1,44.6-2.5,79.3-31c49.6-40.6,113.4-34.8,124.8,40.2h1.5V380.3z"/>
		<path class="st2" d="M500,426.1c0-100.6-71.9-110.5-126.5-65.7c-34.8,28.5-79.9,80.1-79.9,31c0-116.4-114.5-65-193.7,34.8
			l1.2,249.2c76.9-99.7,193.2-151.1,193.2-34.8c0,49.1,44.6-2,79.3-30.4c49.6-40.6,113.4-35.2,124.8,40.8h1.5V426.1z"/>
	</g>
	<path class="st4" d="M100,378.5V224.3c0,0,67-90.9,146-99.6v153.8C246,278.5,183,286.8,100,378.5z"/>
	<polygon class="st5" points="220.5,246.8 224.7,258 237.5,258.2 227.3,265.4 231,276.8 220.5,270 210,276.8 213.7,265.4 
		203.5,258.2 216.3,258 	"/>
	<polygon class="st5" points="220.5,153.4 224.7,164.6 237.5,164.8 227.3,172 231,183.3 220.5,176.6 210,183.3 213.7,172 
		203.5,164.8 216.3,164.6 	"/>
	<polygon class="st5" points="220.5,202.6 224.7,213.8 237.5,214.1 227.3,221.2 231,232.6 220.5,225.8 210,232.6 213.7,221.2 
		203.5,214.1 216.3,213.8 	"/>
	<polygon class="st5" points="174.5,267.6 178.7,278.8 191.4,279.1 181.3,286.2 185,297.6 174.5,290.8 164,297.6 167.7,286.2 
		157.5,279.1 170.3,278.8 	"/>
	<polygon class="st5" points="174.5,178.4 178.7,189.6 191.4,189.8 181.3,197 185,208.4 174.5,201.6 164,208.4 167.7,197 
		157.5,189.8 170.3,189.6 	"/>
	<polygon class="st5" points="174.5,219.3 178.7,230.5 191.4,230.8 181.3,237.9 185,249.3 174.5,242.5 164,249.3 167.7,237.9 
		157.5,230.8 170.3,230.5 	"/>
	<g>
		<polygon class="st5" points="128.5,250.9 132.7,262.1 145.4,262.4 135.3,269.6 139,280.9 128.5,274.1 118,280.9 121.7,269.6 
			111.5,262.4 124.3,262.1 		"/>
		<polygon class="st5" points="128.5,295.1 132.7,306.3 145.4,306.5 135.3,313.7 139,325.1 128.5,318.3 118,325.1 121.7,313.7 
			111.5,306.5 124.3,306.3 		"/>
		<polygon class="st5" points="128.5,206.8 132.7,218 145.4,218.2 135.3,225.4 139,236.8 128.5,230 118,236.8 121.7,225.4 
			111.5,218.2 124.3,218 		"/>
	</g>
</g>
</svg>
