<?xml version="1.0" encoding="utf-8"?>
<!-- Generator: Adobe Illustrator 20.1.0, SVG Export Plug-In . SVG Version: 6.00 Build 0)  -->
<svg version="1.1" id="Layer_1" xmlns="http://www.w3.org/2000/svg" xmlns:xlink="http://www.w3.org/1999/xlink" x="0px" y="0px"
	 viewBox="0 0 600 600" style="enable-background:new 0 0 600 600;" xml:space="preserve">
<style type="text/css">
	.st0{fill:#142A35;}
	.st1{clip-path:url(#SVGID_2_);fill:none;}
	.st2{clip-path:url(#SVGID_2_);fill:#FF0000;}
	.st3{clip-path:url(#SVGID_2_);fill:#FFFFFF;}
	.st4{fill:#0C56B1;}
	.st5{fill:#FFFFFF;}
	.st6{clip-path:url(#SVGID_4_);}
	.st7{fill:#FF0000;}
	.st8{clip-path:url(#SVGID_4_);fill:none;}
</style>
<path class="st0" d="M300,597.5L300,597.5C135.7,597.5,2.5,464.3,2.5,300v0C2.5,135.7,135.7,2.5,300,2.5h0
	c164.3,0,297.5,133.2,297.5,297.5v0C597.5,464.3,464.3,597.5,300,597.5z"/>
<g>
	<g>
		<defs>
			<path id="SVGID_1_" d="M500-397.9c0-100.6-71.9-110.5-126.5-65.7c-34.8,28.5-79.9,80.1-79.9,31c0-116.4-114.5-65-193.7,34.8
				l1.2,249.2c76.9-99.7,193.2-151.1,193.2-34.8c0,49.1,44.6-1.9,79.3-30.3c49.6-40.6,113.4-35.2,124.8,40.8h1.5V-397.9z"/>
		</defs>
		<clipPath id="SVGID_2_">
			<use xlink:href="#SVGID_1_"  style="overflow:visible;"/>
		</clipPath>
		<path class="st3" d="M500-243.7c0-100.6-71.9-110.5-126.5-65.7c-34.8,28.5-79.9,80.1-79.9,31c0-116.4-114.5-65-193.7,34.8
			l1.2,249.2C178-94.1,294.3-145.5,294.3-29.2c0,49.1,44.6-2.5,79.3-31C423.2-100.8,487.1-95,498.5-20h1.5V-243.7z"/>
		<path class="st2" d="M500-197.9c0-100.6-71.9-110.5-126.5-65.7c-34.8,28.5-79.9,80.1-79.9,31c0-116.4-114.5-65-193.7,34.8
			l1.2,249.2C178-48.3,294.3-99.7,294.3,16.6c0,49.1,44.6-2,79.3-30.4C423.2-54.4,487.1-49,498.5,27h1.5V-197.9z"/>
	</g>
</g>
<g>
	<defs>
		<path id="SVGID_3_" d="M500,225.9c0-100.8-71.6-110.7-126.2-65.8c-34.8,28.5-79.8,80.3-79.8,31.1c0-116.6-114.6-65.1-194,34.8
			l1.2,249.6c77-99.9,193.6-151.4,193.6-34.9c0,49.2,44.7-2.6,79.5-31C424,369.1,488,375,499.5,450h0.5V225.9z"/>
	</defs>
	<clipPath id="SVGID_4_">
		<use xlink:href="#SVGID_3_"  style="overflow:visible;"/>
	</clipPath>
	<g class="st6">
		<rect x="204.8" y="8.6" class="st5" width="208.8" height="548.6"/>
		<path class="st7" d="M348.7,333l37.2-30.2l-9.5-5.1l4.6-29l-20.8,6.1L353,263l-14.7,17.4c-2.5,3-7.3,1.4-7.6-2.5l0-0.2l7.6-37.7
			l-13.2,5.1l-15.8-25H309l-15.8,25l-13.2-5.1l7.6,37.7l0,0c-0.3,3.9-5.2,5.5-7.8,2.5L265.2,263l-7.1,11.7l-20.8-6.1l4.7,29
			l-9.5,5.1l37,30c1.5,1.2,2.2,3.3,1.8,5.2l-1.8,8.6c22.9-3.7,33-4.8,37.3-4.9l-1,45.6h3.6h3.3l-1-45.6c4.1,0.1,14.1,1.1,37.4,4.9
			l-1.9-8.8C346.7,335.9,347.3,334.1,348.7,333z"/>
		<rect x="-4.2" y="8.6" class="st7" width="208.8" height="548.6"/>
		<rect x="413.7" y="8.6" class="st7" width="208.8" height="548.6"/>
	</g>
	<path class="st8" d="M500,225.9c0-100.8-71.6-110.7-126.2-65.8c-34.8,28.5-79.8,80.3-79.8,31.1c0-116.6-114.6-65.1-194,34.8
		l1.2,249.6c77-99.9,193.6-151.4,193.6-34.9c0,49.2,44.7-2.6,79.5-31C424,369.1,488,375,499.5,450h0.5V225.9z"/>
</g>
</svg>
