<?xml version="1.0" encoding="utf-8"?>
<!-- Generator: Adobe Illustrator 20.1.0, SVG Export Plug-In . SVG Version: 6.00 Build 0)  -->
<svg version="1.1" id="Layer_1" xmlns="http://www.w3.org/2000/svg" xmlns:xlink="http://www.w3.org/1999/xlink" x="0px" y="0px"
	 viewBox="0 0 800 200" style="enable-background:new 0 0 800 200;" xml:space="preserve">
<style type="text/css">
	.st0{fill:#D52234;}
	.st1{fill:#FFFFFF;}
	.st2{fill:#37474F;}
</style>
<rect y="15" class="st0" width="170" height="170"/>
<g>
	<path class="st1" d="M138.2,118c0-26.8-19.2-29.4-33.7-17.5c-9.2,7.5-21.1,21.3-21.1,8.2c0-31-30.9-17.3-51.4,9.3v28.7
		c20.5-26.5,51.4-40.2,51.4-9.2c0,13.1,11.8-0.7,21.1-8.2c13.2-10.8,30.2-9.7,33.3,10.7h0.5L138.2,118L138.2,118z"/>
	<path class="st1" d="M138.2,80.3c0-26.8-19.2-29.4-33.7-17.5c-9.2,7.5-21.1,21.4-21.1,8.2c0-31-30.9-17.3-51.4,9.2v27.3
		c20.9-25,51.4-38.8,51.4-7.8c0,13.1,11.8-0.7,21.1-8.2c13.2-10.8,30.2-9.7,33.3,10.7h0.5L138.2,80.3L138.2,80.3z"/>
</g>
<g>
	<path class="st2" d="M652.1,161.5c-0.8,0-1.6-0.3-2.2-1l-16.9-19.3c-0.6-0.7-0.9-1.6-0.8-2.5c0.1-1,0.5-1.8,1.2-2.4
		c0.7-0.6,1.6-1,2.6-0.9c0.9,0.1,1.6,0.5,2.2,1.1l13.7,16l76.4-102.4c0.5-0.7,1.4-1.2,2.2-1.4s1.8,0.1,2.5,0.6
		c0.7,0.5,1.2,1.4,1.4,2.2c0.1,0.9-0.1,1.8-0.6,2.5c-0.7,0.9-66.7,90.3-79.3,106.3l0,0c-0.5,0.7-1.4,1.1-2.2,1.2
		C652.1,161.5,652.1,161.5,652.1,161.5z"/>
	<path class="st2" d="M752.1,161.8h-0.5c-24.5,0-43.1-18.4-43.2-42.9h0.3h-0.3v-0.1c0.1-24.5,18.7-43,43.4-43
		c20.5,0,41.9,14.1,43,41.2v3.6h-79.4c1,24.1,21.6,34.8,36,34.8c0.1,0,0.2,0,0.3,0c14.1,0,26.1-7.1,32.2-19.2
		c0.6-1.2,1.8-1.9,3.1-1.9c1.2,0,2.3,0.6,2.9,1.6c0.6,1,0.7,2.3,0.1,3.3C782.7,153.4,768.5,161.8,752.1,161.8z M715.7,114h72.1
		c-0.7-8.4-5-16.7-11.8-22.7c-6.9-6.2-15.5-9.4-24.1-9c-9.3,0-18,3.3-24.7,9.2C720.7,97.1,716.6,105.2,715.7,114z"/>
	<path class="st2" d="M523.7,159.6c-1.9,0-3.5-1.6-3.5-3.5V79.6c0-1.9,1.6-3.5,3.5-3.5s3.5,1.6,3.5,3.5v76.5
		C527.2,158,525.6,159.6,523.7,159.6z"/>
	<path class="st2" d="M369.2,161.5H369c-11.8,0-22.7-4.7-30.9-13.2s-12.4-19.7-12-31.6c0.9-22.4,19.1-40.6,41.5-41.3
		c17-0.6,32.8,8.9,40.3,24.2c0.4,0.9,0.7,1.8,0.3,3.1c-0.3,1-1.1,1.7-2,2c-0.9,0.3-1.8,0.2-2.6-0.2c-0.5-0.3-1-0.7-1.3-1.4
		c-6.4-13.6-20.3-21.8-35.3-20.9c-18.2,1.1-32.7,15.6-34,33.7c-0.7,10.3,2.7,20,9.7,27.4c6.9,7.4,16.4,11.6,26.6,11.6
		c4.6,0,9-0.8,13.1-2.4c8.8-3.4,15.9-10.1,19.9-18.6c0.8-1.5,2.5-2.1,4.1-1.6l0,0c1.4,0.5,2.3,1.9,2.2,3.4l0,0v0.1
		c-0.1,0.3-0.1,0.7-0.3,1C401.1,152.1,386.1,161.5,369.2,161.5z"/>
	<path class="st2" d="M496.5,159.6c-1.9,0-3.4-1.5-3.4-3.4v-40c0-12.9-2.9-21.3-9.3-27.1c-5.2-4.7-12.7-7.2-21.7-7.2
		c-20.3,0.3-31,10.9-31,30.5v43.7c0,1.9-1.5,3.4-3.4,3.4s-3.4-1.5-3.4-3.4V49.2c0-1.9,1.5-3.4,3.4-3.4s3.4,1.5,3.4,3.4v40.3
		c5-7.2,15.6-14.5,31-14.1l0,0c10.5,0,19.2,2.8,25.7,8.3c7.4,6.3,12,13.9,12,32.6v40C499.9,158.1,498.3,159.6,496.5,159.6z"/>
	<circle class="st0" cx="523.7" cy="51.3" r="5.2"/>
	<path class="st2" d="M317.9,159.6c-0.4,0-0.9-0.1-1.3-0.2c-0.9-0.3-1.6-1-2-1.9L298,120.2h-61.2l-16.5,37.3c-0.4,0.9-1.1,1.6-2,1.9
		c-0.9,0.3-1.9,0.3-2.8-0.1c-1.8-0.8-2.7-3-1.8-4.8l50.5-114.1c0.6-1.4,1.9-2.2,3.3-2.2l0,0c1.5,0,2.7,0.8,3.3,2.2l50.5,114
		c0.4,0.9,0.4,1.9,0.1,2.8c-0.3,1-1,1.6-1.9,2C318.9,159.5,318.4,159.6,317.9,159.6z M240.2,112.9h54.7L267.6,51L240.2,112.9z"/>
	<path class="st2" d="M584.6,161.5h-0.5c-24.5,0-43.1-18.4-43.2-42.9h0.3h-0.3v-0.1c0.1-24.5,18.7-43,43.4-43
		c20.5,0,41.9,14.1,43,41.2v3.6h-79.4c1,24.1,21.6,34.8,36,34.8c0.1,0,0.2,0,0.3,0c14.1,0,26.1-7.1,32.2-19.2
		c0.6-1.2,1.8-1.9,3.1-1.9c1.2,0,2.3,0.6,2.9,1.6s0.7,2.3,0.1,3.3C615.1,153.1,601,161.5,584.6,161.5z M548.1,113.7h72.1
		c-0.7-8.4-5-16.7-11.8-22.7c-6.9-6.2-15.5-9.4-24.1-9c-9.3,0-18,3.3-24.7,9.2C553.1,96.9,549,105,548.1,113.7z"/>
</g>
</svg>
