<?xml version="1.0" encoding="utf-8"?>
<!-- Generator: Adobe Illustrator 20.1.0, SVG Export Plug-In . SVG Version: 6.00 Build 0)  -->
<svg version="1.1" id="Layer_1" xmlns="http://www.w3.org/2000/svg" xmlns:xlink="http://www.w3.org/1999/xlink" x="0px" y="0px"
	 viewBox="0 0 24 24" style="enable-background:new 0 0 24 24;" xml:space="preserve">
<style type="text/css">
	.st0{fill:#142A35;}
</style>
<path class="st0" d="M19.4,1.5H4.7c-0.6,0-1.1,0.5-1.1,1v18.9c0,0.6,0.5,1,1.1,1h14.7c0.6,0,1-0.5,1-1V2.5C20.4,2,19.9,1.5,19.4,1.5
	z M5.7,20.4V3.6h12.6v16.8H5.7z"/>
<polygon class="st0" points="16.2,6.8 7.8,6.8 7.8,8.9 16.2,8.9 "/>
<polygon class="st0" points="16.2,10.9 7.8,10.9 7.8,13.1 16.2,13.1 "/>
<polygon class="st0" points="14.1,15.1 7.8,15.1 7.8,17.2 14.1,17.2 "/>
</svg>
