<?xml version="1.0" encoding="utf-8"?>
<!-- Generator: Adobe Illustrator 20.1.0, SVG Export Plug-In . SVG Version: 6.00 Build 0)  -->
<svg version="1.1" id="Layer_1" xmlns="http://www.w3.org/2000/svg" xmlns:xlink="http://www.w3.org/1999/xlink" x="0px" y="0px"
	 viewBox="0 0 24 24" style="enable-background:new 0 0 24 24;" xml:space="preserve">
<style type="text/css">
	.st0{fill:#C5CFD5;}
	.st1{fill:#142A35;}
</style>
<path class="st0" d="M8.9,20H4.1V3.2h12.6V8h2.1V2.2c0-0.6-0.5-1-1-1H3c-0.6,0-1,0.5-1,1v18.9c0,0.6,0.5,1,1,1h5.9V20z"/>
<polygon class="st0" points="14.6,6.4 6.2,6.4 6.2,8.5 14.6,8.5 "/>
<polygon class="st0" points="14.6,10.6 6.2,10.6 6.2,12.7 14.6,12.7 "/>
<polygon class="st0" points="12.5,14.8 6.2,14.8 6.2,16.9 12.5,16.9 "/>
<path d="M384.6,460.8H383v-3.2c0-1.8-1.4-3.2-3.2-3.2c-1.8,0-3.2,1.4-3.2,3.2v3.2H375c-0.4,0-0.8,0.4-0.8,0.8v8
	c0,0.4,0.4,0.8,0.8,0.8h9.6c0.4,0,0.8-0.4,0.8-0.8v-8C385.4,461.2,385.1,460.8,384.6,460.8z M378.2,457.6c0-0.9,0.7-1.6,1.6-1.6
	s1.6,0.7,1.6,1.6v3.2h-3.2V457.6z"/>
<path class="st1" d="M21.5,16h-1.1v-2.3c0-1.3-1-2.3-2.3-2.3s-2.3,1-2.3,2.3V16h-1.1c-0.3,0-0.6,0.3-0.6,0.6v5.7
	c0,0.3,0.3,0.6,0.6,0.6h6.9c0.3,0,0.6-0.3,0.6-0.6v-5.7C22,16.3,21.8,16,21.5,16z M17,13.7c0-0.6,0.5-1.1,1.1-1.1s1.1,0.5,1.1,1.1
	V16H17V13.7z"/>
</svg>
