<?xml version="1.0" encoding="utf-8"?>
<!-- Generator: Adobe Illustrator 20.1.0, SVG Export Plug-In . SVG Version: 6.00 Build 0)  -->
<svg version="1.1" id="Layer_1" xmlns="http://www.w3.org/2000/svg" xmlns:xlink="http://www.w3.org/1999/xlink" x="0px" y="0px"
	 viewBox="0 0 24 24" style="enable-background:new 0 0 24 24;" xml:space="preserve">
<path d="M2,19.9V6.6c1.4,1.3,2.9,2.8,4.3,4.2c1.6,1.7,3.3,3.4,5,4.9l0.7,0.6l0.7-0.6c1.7-1.4,3.4-3.2,5-4.9c1.4-1.5,2.9-3,4.3-4.2
	v13.3H2z"/>
<path d="M21.7,4.1c-1.7,1.5-3.3,3.2-4.9,4.8c-1.6,1.6-3.2,3.3-4.8,4.7c-1.6-1.4-3.2-3.1-4.8-4.7C5.6,7.2,4,5.6,2.3,4.1H21.7z"/>
</svg>
