<?xml version="1.0" encoding="utf-8"?>
<!-- Generator: Adobe Illustrator 19.2.1, SVG Export Plug-In . SVG Version: 6.00 Build 0)  -->
<svg version="1.1" id="Layer_1" xmlns="http://www.w3.org/2000/svg" xmlns:xlink="http://www.w3.org/1999/xlink" x="0px" y="0px"
	 viewBox="0 0 600 63.9" style="enable-background:new 0 0 600 63.9;" xml:space="preserve">
<style type="text/css">
	.st0{fill:#FFFFFF;}
</style>
<title>ML_logo</title>
<path class="st0" d="M71,43.2c0-17.9-12.8-19.6-22.5-11.7c-6.2,5.1-14.1,14.2-14.1,5.5c0-20.7-20.7-11.5-34.4,6.2v19.2
	c13.7-17.7,34.4-26.9,34.4-6.2c0,8.7,7.9-0.5,14.1-5.5c8.8-7.2,20.2-6.5,22.2,7.2H71V43.2L71,43.2z"/>
<path class="st0" d="M71,18C71,0.2,58.2-1.6,48.5,6.4c-6.2,5.1-14.1,14.3-14.1,5.5C34.4-8.8,13.7,0.3,0,18.1v18.2
	c14-16.7,34.4-25.9,34.4-5.2c0,8.7,7.9-0.5,14.1-5.5c8.8-7.2,20.2-6.4,22.2,7.1H71V18L71,18z"/>
<rect x="92.6" y="2.2" class="st0" width="2.7" height="61.7"/>
<path class="st0" d="M117.3,18.6h3.6V24h0.2c1.9-4,6.1-6.5,10.5-6.4c4.2,0,8,2,9.2,6.3c1.8-4,5.9-6.4,10.2-6.3
	c7,0,10.6,3.7,10.6,11.3v21.8h-3.9V29.1c0-5.3-2-8.1-7.6-8.1c-6.8,0-8.7,5.6-8.7,11.6v18.2h-3.9V28.9c0.1-4.4-1.7-8-6.7-8
	c-6.8,0-9.5,5.1-9.6,11.8v18h-3.9L117.3,18.6L117.3,18.6z"/>
<path class="st0" d="M168.8,28.4c0.4-7.5,5.7-10.8,13-10.8c5.7,0,11.8,1.7,11.8,10.3V45c-0.2,1.1,0.6,2.2,1.8,2.4c0.2,0,0.3,0,0.5,0
	c0.4,0,0.9-0.1,1.2-0.2v3.3c-0.8,0.2-1.7,0.3-2.6,0.2c-4,0-4.6-2.2-4.6-5.6h-0.1c-2.7,4.2-5.5,6.5-11.7,6.5
	c-5.9,0-10.8-2.9-10.8-9.4c0-9,8.8-9.3,17.2-10.3c3.2-0.4,5-0.8,5-4.4c0-5.3-3.8-6.6-8.4-6.6c-4.9,0-8.5,2.2-8.6,7.5L168.8,28.4
	L168.8,28.4z M189.7,33.2h-0.1c-0.5,0.9-2.2,1.2-3.3,1.4c-6.7,1.2-14.9,1.1-14.9,7.4c0,3.9,3.5,6.3,7.2,6.3c6,0,11.3-3.8,11.2-10.1
	L189.7,33.2L189.7,33.2z"/>
<path class="st0" d="M224.1,28.7c-1.1-4.8-4-7.7-9.1-7.7c-7.5,0-11.3,6.9-11.3,13.7s3.7,13.7,11.3,13.7c4.9,0,8.8-3.8,9.3-9.2h3.9
	c-1.1,7.7-6.1,12.5-13.3,12.5c-9.8,0-15.2-7.8-15.2-17s5.4-17,15.2-17c6.9,0,12.1,3.7,13,11L224.1,28.7L224.1,28.7z"/>
<path class="st0" d="M233.8,18.6h3.6V24h0.2c1.9-4,6.1-6.5,10.5-6.4c4.2,0,8,2,9.2,6.3c1.8-4,5.9-6.4,10.2-6.3
	c7,0,10.6,3.7,10.6,11.3v21.8h-3.9V29.1c0-5.3-2-8.1-7.6-8.1c-6.8,0-8.7,5.6-8.7,11.6v18.2H254V28.9c0.1-4.4-1.7-8-6.7-8
	c-6.8,0-9.5,5.1-9.6,11.8v18h-3.9L233.8,18.6L233.8,18.6z"/>
<path class="st0" d="M285.7,18.6h3.9v32.1h-3.9V18.6z"/>
<path class="st0" d="M297.2,6.3h3.9v44.5h-3.9V6.3z"/>
<path class="st0" d="M308.7,6.3h3.9v44.5h-3.9V6.3z"/>
<path class="st0" d="M319.8,28.4c0.4-7.5,5.7-10.8,13-10.8c5.7,0,11.8,1.7,11.8,10.3V45c-0.2,1.1,0.6,2.2,1.8,2.4c0.2,0,0.3,0,0.5,0
	c0.4,0,0.9-0.1,1.2-0.2v3.3c-0.8,0.2-1.7,0.3-2.5,0.2c-4,0-4.6-2.2-4.6-5.6h-0.1c-2.7,4.2-5.5,6.5-11.7,6.5
	c-5.9,0-10.8-2.9-10.8-9.4c0-9,8.8-9.3,17.2-10.3c3.2-0.4,5-0.8,5-4.4c0-5.3-3.8-6.6-8.4-6.6c-4.9,0-8.5,2.2-8.6,7.5
	C323.7,28.4,319.8,28.4,319.8,28.4z M340.7,33.2h-0.1c-0.5,0.9-2.2,1.2-3.3,1.4c-6.7,1.2-14.9,1.1-14.9,7.4c0,3.9,3.5,6.3,7.2,6.3
	c6,0,11.3-3.8,11.2-10.1V33.2z"/>
<path class="st0" d="M352.4,18.6h3.9v5.5h0.1c1.4-3.9,5.7-6.5,10.3-6.5c9,0,11.8,4.7,11.8,12.4v20.7h-3.9v-20c0-5.5-1.8-9.7-8.2-9.7
	s-10,4.7-10.1,11v18.7h-3.9L352.4,18.6L352.4,18.6z"/>
<path class="st0" d="M397.7,6.3h3.9v44.5h-3.9V6.3z"/>
<path class="st0" d="M411.4,35.7c0.1,5.7,3,12.6,10.6,12.6c5.7,0,8.8-3.4,10.1-8.2h3.9c-1.7,7.3-5.9,11.5-14,11.5
	c-10.2,0-14.5-7.8-14.5-17c0-8.5,4.3-17,14.5-17s14.4,9,14.1,18L411.4,35.7L411.4,35.7z M432.2,32.4C432,26.5,428.4,21,422,21
	s-10,5.6-10.6,11.5L432.2,32.4L432.2,32.4z"/>
<path class="st0" d="M441,28.4c0.4-7.5,5.7-10.8,13-10.8c5.7,0,11.8,1.7,11.8,10.3V45c-0.2,1.1,0.6,2.2,1.8,2.4c0.2,0,0.3,0,0.5,0
	c0.4,0,0.9-0.1,1.2-0.2v3.3c-0.8,0.2-1.7,0.3-2.5,0.2c-4,0-4.6-2.2-4.6-5.6h-0.1c-2.7,4.2-5.5,6.5-11.7,6.5
	c-5.9,0-10.8-2.9-10.8-9.4c0-9,8.8-9.3,17.2-10.3c3.2-0.4,5-0.8,5-4.4c0-5.3-3.8-6.6-8.4-6.6c-4.9,0-8.5,2.2-8.6,7.5
	C444.9,28.4,441,28.4,441,28.4z M462,33.2h-0.1c-0.5,0.9-2.2,1.2-3.3,1.4c-6.7,1.2-14.9,1.1-14.9,7.4c0,3.9,3.5,6.3,7.2,6.3
	c6,0,11.3-3.8,11.2-10.1L462,33.2L462,33.2z"/>
<path class="st0" d="M473.7,18.6h3.6v7.5h0.1c1.7-5.1,6.7-8.4,12.1-8V22c-7.1-0.4-12,4.9-12,11.5v17.2h-3.9L473.7,18.6L473.7,18.6z"
	/>
<path class="st0" d="M494.4,18.6h3.9v5.5h0.1c1.4-3.9,5.7-6.5,10.3-6.5c9,0,11.8,4.7,11.8,12.4v20.7h-3.9v-20c0-5.5-1.8-9.7-8.2-9.7
	s-10,4.7-10.1,11v18.7h-3.9V18.6z"/>
<path class="st0" d="M528,18.6h3.9v32.1H528V18.6z"/>
<path class="st0" d="M539.4,18.6h3.9v5.5h0.1c1.4-3.9,5.7-6.5,10.3-6.5c9,0,11.8,4.7,11.8,12.4v20.7h-3.9v-20c0-5.5-1.8-9.7-8.2-9.7
	s-10,4.7-10.1,11v18.7h-3.9L539.4,18.6L539.4,18.6z"/>
<path class="st0" d="M600,48.1c-0.1,9.6-3.7,15.4-14.3,15.4c-6.4,0-12.8-2.9-13.3-9.7h3.9c0.9,4.7,5,6.4,9.4,6.4
	c7.2,0,10.3-4.3,10.3-12.1v-4.4H596c-1.8,4-5.8,6.6-10.2,6.6c-10.3,0-14.5-7.3-14.5-16.5c0-8.8,5.2-16.2,14.5-16.2
	c4.4,0,8.3,2.5,10.2,6.5h0.1v-5.5h3.9V48.1z M596.1,34.3c0-6.3-2.9-13.3-10.3-13.3s-10.6,6.7-10.6,13.3c0,6.5,3.4,12.8,10.6,12.8
	C592.5,47,596.1,40.8,596.1,34.3z"/>
<path class="st0" d="M287.6,6.3c-1.5,0-2.7,1.2-2.7,2.7s1.2,2.7,2.7,2.7c1.5,0,2.6-1.2,2.7-2.6C290.3,7.5,289.2,6.3,287.6,6.3
	C287.7,6.3,287.6,6.3,287.6,6.3z"/>
<circle class="st0" cx="529.9" cy="8.9" r="2.6"/>
</svg>
