<?xml version="1.0" encoding="utf-8"?>
<!-- Generator: Adobe Illustrator 19.2.1, SVG Export Plug-In . SVG Version: 6.00 Build 0)  -->
<svg version="1.1" id="Layer_1" xmlns="http://www.w3.org/2000/svg" xmlns:xlink="http://www.w3.org/1999/xlink" x="0px" y="0px"
	 viewBox="0 0 48 48" style="enable-background:new 0 0 48 48;" xml:space="preserve">
<style type="text/css">
	.st0{fill:#FFFFFF;}
</style>
<title>Artboard 1</title>
<path class="st0" d="M24,0C10.8,0,0,10.8,0,24s10.8,24,24,24s24-10.8,24-24S37.2,0,24,0z M26.4,36h-4.8v-4.8h4.8V36z M32.2,20.4
	c-0.2,0.7-0.7,1.2-1,1.9c-0.5,0.5-1,1-1.4,1.2l-1.4,1c-0.5,0.2-1,0.7-1.2,1.2c-0.2,0.5-0.5,1-0.7,1.4v1.7h-4.6v-1.9
	c0.2-1.4,0.7-2.6,1.7-3.8c0.5-0.5,0.7-1,1.2-1.2c0.5-0.2,1-0.7,1.2-1c0.5-0.2,0.7-0.7,1-1.2c0.2-0.5,0.2-1,0.2-1.4
	c0-1-0.2-1.7-0.7-2.4c-0.5-0.5-1.4-0.7-2.2-0.7c-0.5,0-1,0-1.4,0.2c-0.5,0.2-0.7,0.5-1,1c-0.2,0.5-0.5,1-0.7,1.4
	c-0.2,0.5-0.2,1.2-0.2,1.7h-4.8c0-1.2,0.2-2.2,0.7-3.4c0.2-0.7,0.7-1.7,1.4-2.4c0.7-0.7,1.7-1.2,2.6-1.7c1-0.5,2.2-0.7,3.4-0.7
	c1.4,0,2.6,0.2,4.1,0.7c1,0.5,1.9,1,2.6,1.7c0.7,0.5,1.2,1.2,1.4,2.2c0.2,0.7,0.5,1.4,0.5,2.2C32.6,18.7,32.4,19.7,32.2,20.4
	L32.2,20.4z"/>
</svg>
