<?xml version="1.0" encoding="utf-8" ?>
<svg xmlns="http://www.w3.org/2000/svg" width="24" height="24" viewBox="0 0 24 24">
  <title>Artboard 1</title>
  <path d="M12,2A10,10,0,1,0,22,12,10,10,0,0,0,12,2Zm1,15h-2V15h2Zm2.4-6.46a2.71,2.71,0,0,1-.44.75,2.92,2.92,0,0,1-.58.53l-.6.44a2.72,2.72,0,0,0-.5.5,1.63,1.63,0,0,0-.28.58L13,14H11.12v-.76a2.81,2.81,0,0,1,.68-1.58,3.56,3.56,0,0,1,.53-.5q.28-.21.52-.42a1.9,1.9,0,0,0,.39-.46,1.15,1.15,0,0,0,.13-.63,1.29,1.29,0,0,0-.32-1,1.21,1.21,0,0,0-.88-.31,1.37,1.37,0,0,0-.65.15,1.31,1.31,0,0,0-.45.39,1.72,1.72,0,0,0-.26.58,2.86,2.86,0,0,0-.08.71H8.66A4,4,0,0,1,8.92,8.8a3.31,3.31,0,0,1,.69-1.1A3.11,3.11,0,0,1,10.68,7a3.61,3.61,0,0,1,1.4-.26A4.41,4.41,0,0,1,13.74,7a3.24,3.24,0,0,1,1.08.68,2.44,2.44,0,0,1,.58.88,2.54,2.54,0,0,1,.18.88A3,3,0,0,1,15.4,10.55Z"/>
</svg>
