<?xml version="1.0" encoding="utf-8"?>
<!-- Generator: Adobe Illustrator 19.2.1, SVG Export Plug-In . SVG Version: 6.00 Build 0)  -->
<svg version="1.1" id="Layer_1" xmlns="http://www.w3.org/2000/svg" xmlns:xlink="http://www.w3.org/1999/xlink" x="0px" y="0px"
	 viewBox="0 0 400 400" style="enable-background:new 0 0 400 400;" xml:space="preserve">
<style type="text/css">
	.st0{fill:#882345;}
	.st1{fill:#263238;}
	.st2{fill:#FFFFFF;}
</style>
<rect x="36.5" y="190.5" class="st0" width="175" height="178.2"/>
<rect x="132.8" y="45.8" class="st1" width="225" height="225"/>
<g>
	<path class="st2" d="M264,135.9c-5-4.6-9.4-7-15.2-7c-6.7,0-10.3,2.7-10.3,9c0,13.3,36.9,12.2,36.9,38.9c0,13.4-7.4,23.8-21.8,26.9
		v14.5h-13.6v-14c-8.3-1-18-4.6-24.6-10.6l9-13.8c7.1,5.3,13.3,8.1,20,8.1c7.8,0,11.3-3.2,11.3-9.7c0-14.4-36.9-14.1-36.9-39.3
		c0-13.7,8.1-23.2,21.3-25.9V98.5h13.6v14.1c9,1.3,15.4,5.7,20.8,11.5L264,135.9z"/>
</g>
</svg>
