<?xml version="1.0" encoding="utf-8"?>
<!-- Generator: Adobe Illustrator 19.2.1, SVG Export Plug-In . SVG Version: 6.00 Build 0)  -->
<svg version="1.1" id="Layer_1" xmlns="http://www.w3.org/2000/svg" xmlns:xlink="http://www.w3.org/1999/xlink" x="0px" y="0px"
	 viewBox="0 0 400 400" style="enable-background:new 0 0 400 400;" xml:space="preserve">
<style type="text/css">
	.st0{fill:#3192D3;}
	.st1{fill:#263238;}
	.st2{fill:#FFFFFF;}
</style>
<circle class="st0" cx="126.9" cy="269.5" r="100"/>
<circle class="st1" cx="241.9" cy="161.7" r="131.3"/>
<g>
	<rect x="232.6" y="190.5" class="st2" width="19.5" height="19.5"/>
	<path class="st2" d="M275.4,147.1c-1,2.7-2.5,5.1-4.3,7.3c-1.6,2-3.6,3.7-5.6,5.2l-5.9,4.3c-1.9,1.4-3.5,3-4.9,4.9
		c-1.3,1.7-2.2,3.6-2.7,5.6v6.5h-18.3v-7.4c0.5-5.7,2.9-11.1,6.6-15.4c1.6-1.8,3.3-3.4,5.2-4.9c1.9-1.3,3.5-2.7,5.1-4.1
		c1.5-1.3,2.7-2.8,3.8-4.5c1-1.9,1.4-4,1.3-6.2c0.4-3.6-0.7-7.1-3.1-9.7c-2.4-2.1-5.4-3.2-8.6-3c-2.2-0.1-4.4,0.4-6.3,1.5
		c-1.7,0.9-3.3,2.2-4.4,3.8c-1.2,1.7-2.1,3.6-2.5,5.6c-0.5,2.3-0.8,4.6-0.8,6.9h-20.1c0.1-4.5,0.9-9.1,2.5-13.4
		c1.5-4,3.8-7.6,6.8-10.7c3-3,6.5-5.3,10.4-6.8c4.3-1.7,9-2.6,13.7-2.5c5.5-0.2,11,0.7,16.2,2.5c3.9,1.5,7.5,3.7,10.5,6.6
		c2.5,2.4,4.4,5.3,5.6,8.6c1.1,2.7,1.7,5.6,1.8,8.6c0.1,3.7-0.5,7.4-1.8,10.8v-0.1H275.4z"/>
</g>
</svg>
