<?xml version="1.0" encoding="utf-8"?>
<!-- Generator: Adobe Illustrator 19.2.1, SVG Export Plug-In . SVG Version: 6.00 Build 0)  -->
<svg version="1.1" id="Layer_1" xmlns="http://www.w3.org/2000/svg" xmlns:xlink="http://www.w3.org/1999/xlink" x="0px" y="0px"
	 viewBox="0 0 400 400" style="enable-background:new 0 0 400 400;" xml:space="preserve">
<style type="text/css">
	.st0{fill:#68B75F;}
	.st1{fill:#263238;}
	.st2{fill:#FFFFFF;}
</style>
<g>
	<path class="st0" d="M286.5,366.2c-2.6,0-5.2-0.5-7.6-1.5L195.7,331c-5.7-2.3-9.2-7-9.2-12.2v-105c0-5.2,3.5-9.9,9.2-12.2
		l83.2-33.8c4.8-1.9,10.5-1.9,15.3,0l83.2,33.8c5.7,2.3,9.2,7,9.2,12.2v105c0,5.3-3.5,10-9.2,12.2l-83.2,33.8
		C291.7,365.7,289.1,366.2,286.5,366.2z"/>
	<path class="st0" d="M199,318.7c0.1,0,0.5,0.4,1.4,0.7l83.2,33.8c1.8,0.7,4.1,0.7,5.9,0l83.2-33.8l0,0c1-0.4,1.4-0.8,1.4-1
		L374,213.7c0,0.2-0.4-0.3-1.4-0.7l-83.2-33.8c-1.8-0.7-4.1-0.7-5.9,0L200.4,213c-1,0.4-1.4,0.9-1.5,1L199,318.7L199,318.7z"/>
</g>
<g>
	<path class="st1" d="M144.5,295.8c-3.4,0-6.9-0.6-10-1.9l-109-44.3c-7.4-3-12-9.1-12-16V96c0-6.9,4.6-13,12-16l109-44.2
		c6.3-2.6,13.8-2.6,20,0l109,44.2c7.4,3,12,9.2,12,16v137.6c0,6.9-4.6,13-12.1,16l-108.9,44.3C151.4,295.2,147.9,295.8,144.5,295.8z
		"/>
	<path class="st1" d="M29.9,233.5c0.2,0,0.7,0.5,1.8,0.9l109,44.3c2.3,0.9,5.4,0.9,7.7,0l108.9-44.3l0,0c1.3-0.5,1.8-1.1,1.9-1.3
		L259.1,96c0,0.2-0.5-0.3-1.8-0.9L148.4,50.9c-2.3-0.9-5.4-0.9-7.7,0l-109,44.2c-1.3,0.5-1.8,1.1-1.9,1.3L29.9,233.5
		C29.9,233.6,29.9,233.5,29.9,233.5z"/>
</g>
<path class="st2" d="M207.5,119.8l-57.8-23.5c-3.3-1.3-7.3-1.3-10.6,0l-57.8,23.5c-3.9,1.7-6.4,4.9-6.4,8.5v73
	c0,3.6,2.4,6.9,6.4,8.5l57.8,23.5c1.7,0.7,3.5,1,5.3,1s3.6-0.4,5.3-1l57.8-23.5c3.9-1.6,6.4-4.9,6.4-8.5v-73
	C213.9,124.7,211.5,121.4,207.5,119.8z M142.5,104.4c1.2-0.5,2.8-0.5,4.1,0l51.8,21.1l-54,21.6l-53.9-21.6L142.5,104.4z M84.7,201.8
	c-0.5-0.2-0.8-0.5-0.9-0.5l0-69.1l56.4,22.6v69.6L84.7,201.8z M204.2,201.8l-55.4,22.5v-69.6l56.3-22.5l0.1,69
	C205.2,201.2,204.9,201.5,204.2,201.8z"/>
<path class="st2" d="M127.7,147.7c0,0.1,0.1,0.1,0.1,0.2c1.2,0.2,2.4,0.2,3.6,0.1c1.1-0.1,1.8-0.4,2.4-0.8
	C131.7,147.2,129.6,147.3,127.7,147.7z"/>
<polygon class="st2" points="121.3,141.2 102.6,136 164.9,110 183.4,115.3 "/>
<polygon class="st2" points="119.1,146.1 104,139.3 104,168 119.1,174.8 "/>
</svg>
