<?xml version="1.0" encoding="utf-8"?>
<!-- Generator: Adobe Illustrator 19.2.1, SVG Export Plug-In . SVG Version: 6.00 Build 0)  -->
<svg version="1.1" id="Layer_1" xmlns="http://www.w3.org/2000/svg" xmlns:xlink="http://www.w3.org/1999/xlink" x="0px" y="0px"
	 viewBox="0 0 400 400" style="enable-background:new 0 0 400 400;" xml:space="preserve">
<style type="text/css">
	.st0{fill:#FFFFFF;}
	.st1{fill:#142A35;}
	.st2{fill:#263238;}
</style>
<circle class="st0" cx="200" cy="200" r="199"/>
<g>
	<rect x="183.2" y="246.3" class="st1" width="29.6" height="29.6"/>
	<path class="st1" d="M248.2,180.3c-1.5,4.1-3.8,7.7-6.5,11.1c-2.4,3-5.5,5.6-8.5,7.9l-9,6.5c-2.9,2.1-5.3,4.6-7.4,7.4
		c-2,2.6-3.3,5.5-4.1,8.5v9.9h-27.8v-11.2c0.8-8.7,4.4-16.9,10-23.4c2.4-2.7,5-5.2,7.9-7.4c2.9-2,5.3-4.1,7.7-6.2
		c2.3-2,4.1-4.3,5.8-6.8c1.5-2.9,2.1-6.1,2-9.4c0.6-5.5-1.1-10.8-4.7-14.7c-3.6-3.2-8.2-4.9-13.1-4.6c-3.3-0.2-6.7,0.6-9.6,2.3
		c-2.6,1.4-5,3.3-6.7,5.8c-1.8,2.6-3.2,5.5-3.8,8.5c-0.8,3.5-1.2,7-1.2,10.5h-30.5c0.2-6.8,1.4-13.8,3.8-20.4
		c2.3-6.1,5.8-11.5,10.3-16.3c4.6-4.6,9.9-8.1,15.8-10.3c6.5-2.6,13.7-4,20.8-3.8c8.4-0.3,16.7,1.1,24.6,3.8c5.9,2.3,11.4,5.6,16,10
		c3.8,3.6,6.7,8.1,8.5,13.1c1.7,4.1,2.6,8.5,2.7,13.1c0.2,5.6-0.8,11.2-2.7,16.4v-0.2L248.2,180.3L248.2,180.3z"/>
</g>
<g>
	<path class="st2" d="M655,399.2c-5.2,0-10.5-0.9-15.3-2.9L473.3,329c-11.3-4.6-18.3-13.8-18.3-24.3V95.6c0-10.5,7-19.8,18.3-24.3
		L639.7,4.2c9.6-4,21.1-4,30.5,0l166.4,67.2c11.3,4.6,18.3,14,18.3,24.3v209.1c0,10.5-7,19.8-18.5,24.3l-166.3,67.3
		C665.5,398.3,660.2,399.2,655,399.2z"/>
	<path class="st2" d="M480,304.5c0.3,0,1.1,0.8,2.7,1.4l166.4,67.3c3.5,1.4,8.2,1.4,11.8,0l166.3-67.3l0,0c2-0.8,2.7-1.7,2.9-2
		L830,95.6c0,0.3-0.8-0.5-2.7-1.4L661,27.1c-3.5-1.4-8.2-1.4-11.8,0L482.8,94.3c-2,0.8-2.7,1.7-2.9,2L480,304.5
		C480,304.7,480,304.5,480,304.5z"/>
</g>
<path class="st0" d="M750.5,131.8l-87.6-35.6c-5-2-11.1-2-16.1,0l-87.6,35.6c-5.9,2.6-9.7,7.4-9.7,12.9v110.6
	c0,5.5,3.6,10.5,9.7,12.9l87.6,35.6c2.6,1.1,5.3,1.5,8,1.5c2.7,0,5.5-0.6,8-1.5l87.6-35.6c5.9-2.4,9.7-7.4,9.7-12.9V144.6
	C760.2,139.2,756.5,134.2,750.5,131.8z M652,108.4c1.8-0.8,4.2-0.8,6.2,0l78.5,32l-81.8,32.7l-81.7-32.7L652,108.4z M564.4,256
	c-0.8-0.3-1.2-0.8-1.4-0.8V150.6l85.5,34.3v105.5L564.4,256z M745.5,256l-84,34.1V184.7l85.3-34.1l0.2,104.6
	C747,255.1,746.5,255.6,745.5,256z"/>
<path class="st0" d="M629.5,174c0,0.2,0.2,0.2,0.2,0.3c1.8,0.3,3.6,0.3,5.5,0.2c1.7-0.2,2.7-0.6,3.6-1.2
	C635.6,173.3,632.4,173.4,629.5,174z"/>
<polygon class="st0" points="619.8,164.2 591.5,156.3 685.9,116.9 714,124.9 "/>
<polygon class="st0" points="616.5,171.6 593.6,161.3 593.6,204.8 616.5,215.1 "/>
<path class="st0" d="M217.5,200.5h2.1V191h9.6v-2.1h-9.6v-9.6h-2.1v9.6h-9.6v2.1h9.6V200.5z M203.2,224.5h3l-15.4-51.4H187l-16,51.4
	h3l4.9-16h19.4L203.2,224.5z M197.7,206.1h-18.1l9.1-30h0.1L197.7,206.1z"/>
</svg>
