<?xml version="1.0" encoding="utf-8"?>
<!-- Generator: Adobe Illustrator 20.1.0, SVG Export Plug-In . SVG Version: 6.00 Build 0)  -->
<svg version="1.1" id="Layer_1" xmlns="http://www.w3.org/2000/svg" xmlns:xlink="http://www.w3.org/1999/xlink" x="0px" y="0px"
	 viewBox="0 0 756 135" style="enable-background:new 0 0 756 135;" xml:space="preserve">
<style type="text/css">
	.st0{fill:#FFFFFF;}
	.st1{fill:#DA1B2C;}
</style>
<g>
	<path class="st0" d="M712.7,77.7c0-11.6,6.7-18.2,14.7-18.2c9.8,0,14.6,9,14.6,18.1c0,13-7.1,18.5-14.7,18.5
		C718.7,96.1,712.7,88.8,712.7,77.7 M698,77.7c0,18.2,10.1,30.7,26,30.7c13.4,0,18.4-10,18.4-10h0.2c0,0-0.2,1.6-0.2,3.8v4.8h13.8
		V25.4h-14.6v25.8c0,1.8,0.1,3.3,0.1,3.3h-0.2c0,0-4-7.5-16.9-7.5C709,47,698,59.1,698,77.7 M650.4,89.4c0-8.2,12.1-9.2,19.5-9.2
		h2.5v1.4c0,7.1-5.5,15.4-13.2,15.4C653.3,97,650.4,93.3,650.4,89.4 M635.7,90.1c0,11.7,9.4,18.3,19.9,18.3
		c13.3,0,17.9-10.3,17.8-10.3h0.2c0,0-0.2,1.8-0.2,4.1v4.8h13.4V70.3c0-14.8-9-23.3-24.4-23.3c-13.9,0-23,7.2-23,7.2l5.5,10.5
		c0,0,7.7-5.6,16.1-5.6c6.4,0,11.3,2.6,11.3,10.3v0.8h-2C660.9,70.2,635.7,71.5,635.7,90.1 M587.2,66V38.1h14.1
		c8.4,0,13.4,5.4,13.4,13.8c0,8.5-5.1,14-13.7,14L587.2,66L587.2,66z M572.4,107h14.8V78.8h16.7c15.3,0,26-11,26-26.9
		s-10.7-26.6-26-26.6h-31.5V107z"/>
	<path class="st0" d="M499.6,107h14.6V80.1c0-2.8,0.2-5.3,0.9-7.6c2.2-7.1,8.2-12.2,15.9-12.2c7.5,0,9.3,4.8,9.3,12V107h14.5V69.3
		c0-15.5-7.4-22.3-20.3-22.3c-10.2,0-17.4,6-20.2,11.6H514c0,0,0.2-2.1,0.2-4.9V25.4h-14.6L499.6,107L499.6,107z M432.7,77.7
		c0,17,12.4,30.7,31.8,30.7c15.7,0,24.1-9.5,24.1-9.5L483,88.5c0,0-7.4,7.5-17.2,7.5c-11.2,0-18.3-8.5-18.3-18.4
		c0-10,7-18.2,17.8-18.2c9.2,0,15.3,6.3,15.3,6.3l6.4-10c0,0-7.2-8.7-22.5-8.7C445.1,47,432.7,61,432.7,77.7 M366.5,107h14.6V80.1
		c0-2.8,0.2-5.4,1-7.8c2.2-7,7.9-12,15.7-12c7.5,0,9.3,4.8,9.3,12V107h14.5V69.3c0-15.5-7.4-22.3-20.3-22.3
		c-11.8,0-18.3,7.2-20.8,12.2h-0.2c0,0,0.2-1.8,0.2-4v-6.8h-14L366.5,107L366.5,107L366.5,107z M295.7,86.1c0,16,7.8,22.3,20.3,22.3
		c10,0,17.5-6.1,20.3-12.2h0.2c0,0-0.2,1.8-0.2,4.1v6.7h14V48.4h-14.6v26.9c0,10.5-5.9,19.8-16.4,19.8c-7.2,0-9.1-4.8-9.1-12V48.4
		h-14.6V86.1L295.7,86.1L295.7,86.1z M244.9,89.4c0-8.2,12.1-9.2,19.5-9.2h2.5v1.4c0,7.1-5.5,15.4-13.2,15.4
		C247.8,97,244.9,93.3,244.9,89.4 M230.2,90.1c0,11.7,9.4,18.3,19.9,18.3c13.3,0,17.9-10.3,17.8-10.3h0.2c0,0-0.2,1.8-0.2,4.1v4.8
		h13.4V70.3c0-14.8-9-23.3-24.4-23.3c-13.9,0-23,7.2-23,7.2l5.5,10.5c0,0,7.7-5.6,16.1-5.6c6.4,0,11.3,2.6,11.3,10.3v0.8h-2
		C255.3,70.2,230.2,71.5,230.2,90.1 M175.5,107h50.1V94.2h-35.3V25.4h-14.8V107L175.5,107z"/>
</g>
<rect class="st1" width="135" height="135"/>
<path class="st0" d="M114.7,82.8c0-23.8-17-26.1-30-15.6C76.5,74,66,86.2,66,74.6c0-27.6-27.5-15.4-45.7,8.3l0,25.5
	C38.5,84.8,66,72.6,66,100.1c0,11.6,10.5-0.6,18.8-7.3c11.7-9.6,26.8-8.6,29.5,9.5h0.4C114.7,102.3,114.7,82.8,114.7,82.8z"/>
<path class="st0" d="M114.7,49.4c0-23.8-17-26.1-30-15.5c-8.2,6.7-18.8,19-18.8,7.3c0-27.6-27.5-15.4-45.7,8.2v24.2
	C38.8,51.4,66,39.2,66,66.7c0,11.6,10.5-0.6,18.8-7.3c11.7-9.6,26.8-8.6,29.5,9.5h0.4C114.7,68.8,114.7,49.4,114.7,49.4z"/>
</svg>
