<?xml version="1.0" encoding="iso-8859-1"?>
<!-- Generator: Adobe Illustrator 19.1.0, SVG Export Plug-In . SVG Version: 6.00 Build 0)  -->
<svg version="1.1" id="Layer_1" xmlns="http://www.w3.org/2000/svg" xmlns:xlink="http://www.w3.org/1999/xlink" x="0px" y="0px"
	 viewBox="-80 239 756 135" style="enable-background:new -80 239 756 135;" xml:space="preserve">
<g>
	<path style="fill:#DA1B2C;" d="M632.716,316.681c0-11.613,6.668-18.167,14.714-18.167c9.771,0,14.599,8.969,14.599,18.052
		c0,12.993-7.126,18.512-14.714,18.512C638.692,335.078,632.716,327.834,632.716,316.681 M618.002,316.681
		c0,18.167,10.116,30.7,25.978,30.7c13.449,0,18.392-10.003,18.392-10.003h0.23c0,0-0.23,1.61-0.23,3.794v4.829h13.794v-81.636
		h-14.599v25.756c0,1.84,0.115,3.334,0.115,3.334h-0.23c0,0-4.023-7.474-16.897-7.474
		C629.036,285.981,618.002,298.054,618.002,316.681 M570.413,328.409c0-8.164,12.069-9.198,19.542-9.198h2.528v1.38
		c0,7.129-5.518,15.407-13.219,15.407C573.286,335.997,570.413,332.318,570.413,328.409 M555.699,329.099
		c0,11.728,9.426,18.282,19.887,18.282c13.334,0,17.932-10.348,17.817-10.348h0.23c0,0-0.23,1.84-0.23,4.139v4.829h13.449v-36.679
		c0-14.832-8.966-23.341-24.37-23.341c-13.909,0-22.99,7.244-22.99,7.244l5.518,10.463c0,0,7.701-5.634,16.092-5.634
		c6.438,0,11.266,2.645,11.266,10.348v0.805h-1.955C580.874,309.207,555.699,310.472,555.699,329.099 M507.191,304.953v-27.825
		h14.139c8.391,0,13.449,5.404,13.449,13.798c0,8.509-5.058,14.028-13.679,14.028H507.191z M492.363,346.001h14.829v-28.17h16.667
		c15.289,0,25.978-11.038,25.978-26.905c0-15.867-10.689-26.561-25.978-26.561h-31.496V346.001z"/>
	<path style="fill:#4E4E4E;" d="M419.602,346.001H434.2v-26.905c0-2.76,0.23-5.289,0.92-7.589
		c2.185-7.129,8.161-12.188,15.863-12.188c7.471,0,9.311,4.829,9.311,11.958v34.724h14.484v-37.714
		c0-15.522-7.356-22.306-20.346-22.306c-10.231,0-17.357,5.979-20.231,11.613h-0.23c0,0,0.23-2.07,0.23-4.944v-28.285h-14.599
		V346.001z M352.702,316.681c0,17.017,12.414,30.7,31.841,30.7c15.749,0,24.14-9.543,24.14-9.543l-5.633-10.348
		c0,0-7.356,7.474-17.242,7.474c-11.151,0-18.277-8.509-18.277-18.397c0-10.003,7.011-18.167,17.817-18.167
		c9.196,0,15.289,6.324,15.289,6.324l6.438-10.003c0,0-7.241-8.739-22.53-8.739C365.116,285.981,352.702,300.009,352.702,316.681
		 M286.491,346.001h14.599v-26.905c0-2.76,0.23-5.404,1.035-7.819c2.185-7.014,7.931-11.958,15.749-11.958
		c7.471,0,9.311,4.829,9.311,11.958v34.724h14.484v-37.714c0-15.522-7.356-22.306-20.346-22.306
		c-11.839,0-18.277,7.244-20.805,12.188h-0.23c0,0,0.23-1.84,0.23-4.024v-6.784h-14.024v58.64H286.491z M215.684,325.074
		c0,15.982,7.816,22.306,20.346,22.306c10.001,0,17.472-6.094,20.346-12.188h0.23c0,0-0.23,1.84-0.23,4.139v6.669H270.4v-58.64
		h-14.599v26.905c0,10.463-5.863,19.777-16.437,19.777c-7.241,0-9.081-4.829-9.081-11.958v-34.724h-14.599v37.714H215.684z
		 M164.88,328.409c0-8.164,12.069-9.198,19.542-9.198h2.528v1.38c0,7.129-5.518,15.407-13.219,15.407
		C167.753,335.997,164.88,332.318,164.88,328.409 M150.166,329.099c0,11.728,9.426,18.282,19.887,18.282
		c13.334,0,17.932-10.348,17.817-10.348h0.23c0,0-0.23,1.84-0.23,4.139v4.829h13.449v-36.679c0-14.832-8.966-23.341-24.369-23.341
		c-13.909,0-22.99,7.244-22.99,7.244l5.518,10.463c0,0,7.701-5.634,16.092-5.634c6.438,0,11.266,2.645,11.266,10.348v0.805h-1.955
		C175.341,309.207,150.166,310.472,150.166,329.099 M95.451,346.001h50.117v-12.763H110.28v-68.873H95.451L95.451,346.001
		L95.451,346.001z"/>
</g>
<rect x="-80" y="239" style="fill:#DA1B2C;" width="134.962" height="135"/>
<g>
	<path style="fill:#FFFFFF;" d="M34.716,321.821c0-23.813-17.044-26.132-29.956-15.552c-8.233,6.735-18.778,18.956-18.778,7.341
		c0-27.56-27.541-15.363-45.739,8.265l0.018,25.505c18.196-23.606,45.721-35.771,45.721-8.244c0,11.634,10.545-0.597,18.778-7.326
		c11.733-9.615,26.842-8.583,29.542,9.513h0.414V321.821z"/>
	<path style="fill:#FFFFFF;" d="M34.698,288.371c0-23.813-17.044-26.15-29.956-15.549c-8.233,6.738-18.778,18.965-18.778,7.347
		c0-27.551-27.526-15.378-45.721,8.232v24.224c18.589-22.205,45.721-34.457,45.721-6.915c0,11.622,10.545-0.624,18.778-7.335
		c11.733-9.63,26.846-8.586,29.542,9.474h0.414V288.371z"/>
</g>
</svg>
