<?xml version="1.0" encoding="iso-8859-1"?>
<!-- Generator: Adobe Illustrator 19.1.0, SVG Export Plug-In . SVG Version: 6.00 Build 0)  -->
<svg version="1.1" id="Layer_1" xmlns="http://www.w3.org/2000/svg" xmlns:xlink="http://www.w3.org/1999/xlink" x="0px" y="0px"
	 viewBox="154 656 408.6 125.5" style="enable-background:new 154 656 408.6 125.5;" xml:space="preserve">
<g>
	
		<linearGradient id="SVGID_1_" gradientUnits="userSpaceOnUse" x1="154" y1="-98.7612" x2="230.5" y2="-98.7612" gradientTransform="matrix(1 0 0 -1 0 612)">
		<stop  offset="0" style="stop-color:#BD2026"/>
		<stop  offset="0.0847" style="stop-color:#C42026"/>
		<stop  offset="0.2" style="stop-color:#D62027"/>
		<stop  offset="0.49" style="stop-color:#E7735F"/>
		<stop  offset="0.5012" style="stop-color:#DB5B4F"/>
		<stop  offset="0.5152" style="stop-color:#D04540"/>
		<stop  offset="0.5317" style="stop-color:#C73434"/>
		<stop  offset="0.552" style="stop-color:#C1292C"/>
		<stop  offset="0.5806" style="stop-color:#BE2227"/>
		<stop  offset="0.66" style="stop-color:#BD2026"/>
		<stop  offset="0.7155" style="stop-color:#C73434"/>
		<stop  offset="0.8291" style="stop-color:#E26958"/>
		<stop  offset="0.85" style="stop-color:#E7735F"/>
		<stop  offset="1" style="stop-color:#BD2026"/>
	</linearGradient>
	<path style="fill:url(#SVGID_1_);" d="M230.5,710.2c0-19.3-13.8-21.2-24.3-12.6c-6.7,5.5-15.2,15.3-15.2,5.9
		c0-22.3-22.3-12.4-37,6.7v20.6c14.7-19.1,37-29,37-6.7c0,9.4,8.5-0.5,15.2-5.9c9.5-7.8,21.7-6.9,23.9,7.7h0.3v-15.7H230.5z"/>
	
		<linearGradient id="SVGID_2_" gradientUnits="userSpaceOnUse" x1="154" y1="-71.1612" x2="230.5" y2="-71.1612" gradientTransform="matrix(1 0 0 -1 0 612)">
		<stop  offset="0" style="stop-color:#BD2026"/>
		<stop  offset="0.0847" style="stop-color:#C42026"/>
		<stop  offset="0.2" style="stop-color:#D62027"/>
		<stop  offset="0.49" style="stop-color:#E7735F"/>
		<stop  offset="0.5012" style="stop-color:#DB5B4F"/>
		<stop  offset="0.5152" style="stop-color:#D04540"/>
		<stop  offset="0.5317" style="stop-color:#C73434"/>
		<stop  offset="0.552" style="stop-color:#C1292C"/>
		<stop  offset="0.5806" style="stop-color:#BE2227"/>
		<stop  offset="0.66" style="stop-color:#BD2026"/>
		<stop  offset="0.7155" style="stop-color:#C73434"/>
		<stop  offset="0.8291" style="stop-color:#E26958"/>
		<stop  offset="0.85" style="stop-color:#E7735F"/>
		<stop  offset="1" style="stop-color:#BD2026"/>
	</linearGradient>
	<path style="fill:url(#SVGID_2_);" d="M230.5,683.1c0-19.3-13.8-21.2-24.3-12.6c-6.7,5.5-15.2,15.4-15.2,5.9
		c0-22.3-22.3-12.4-37,6.7v19.6c15.1-18,37-27.9,37-5.6c0,9.4,8.5-0.5,15.2-5.9c9.5-7.8,21.7-7,23.9,7.7h0.3v-15.8H230.5z"/>
	<path style="fill:#DA1B2C;" d="M316.3,672.9c-2.3,0-4.4,0.6-6.4,1.7c-1.9,1-3.3,2.6-4.4,4.7c-0.7-2-1.9-3.6-3.6-4.6
		c-1.8-1.1-3.9-1.7-6.2-1.7c-2.8,0-5.1,0.6-6.9,1.8c-1.7,1.1-3.1,2.7-4.2,4.7V674h-4.2v34.4h4.5v-19.2c0-1.8,0.2-3.4,0.6-4.9
		s1-2.8,1.8-3.9c0.8-1.1,1.8-2,3.1-2.6c1.3-0.6,2.8-0.9,4.5-0.9c1.3,0,2.4,0.2,3.3,0.6s1.6,1,2.1,1.7s0.9,1.6,1.2,2.6
		c0.2,1,0.4,2.1,0.4,3.2v23.3h4.5v-19.4c0-1.6,0.2-3.1,0.4-4.5c0.3-1.4,0.8-2.7,1.5-3.9c0.7-1.1,1.6-2,2.8-2.7c1.2-0.7,2.6-1,4.4-1
		c2.9,0,5,0.7,6.1,2.1s1.7,3.6,1.7,6.3v23.1h4.5V685C327.7,677,323.9,672.9,316.3,672.9z"/>
	<path style="fill:#DA1B2C;" d="M363.8,704.4c-1.5,0-2.2-0.8-2.2-2.3V684c0-2.3-0.4-4.2-1.2-5.7s-1.8-2.6-3-3.4
		c-1.2-0.8-2.6-1.3-4.1-1.6c-3.5-0.7-7.1-0.5-10,0.2c-1.6,0.4-3.1,1.1-4.3,2.1c-1.2,0.9-2.2,2.2-2.9,3.6c-0.7,1.5-1.1,3.2-1.3,5.2
		v0.2h4.5v-0.2c0.1-2.7,0.9-4.7,2.6-5.9c1.6-1.2,3.8-1.8,6.3-1.8c1.2,0,2.4,0.1,3.4,0.3c1.1,0.2,2,0.6,2.8,1.1s1.4,1.2,1.8,2.1
		c0.4,0.9,0.7,2,0.7,3.4c0,0.9-0.1,1.6-0.4,2.2c-0.2,0.5-0.5,1-1,1.3c-0.4,0.3-1,0.5-1.6,0.6c-0.7,0.1-1.4,0.3-2.3,0.3
		c-2.3,0.3-4.5,0.6-6.6,0.8c-2.2,0.3-4.2,0.8-5.9,1.5c-1.8,0.7-3.2,1.8-4.3,3.1c-1.1,1.4-1.6,3.3-1.6,5.7c0,1.7,0.3,3.3,0.9,4.5
		c0.6,1.3,1.5,2.3,2.5,3.2c1,0.8,2.3,1.4,3.7,1.8s2.9,0.6,4.5,0.6c1.7,0,3.1-0.2,4.4-0.5c1.2-0.3,2.3-0.8,3.3-1.3
		c1-0.6,1.8-1.3,2.6-2.2c0.7-0.8,1.4-1.7,2.1-2.6c0,0.7,0.1,1.4,0.2,2c0.1,0.8,0.4,1.4,0.7,2c0.4,0.5,0.9,1,1.6,1.3
		c0.7,0.3,1.5,0.4,2.6,0.4c0.6,0,1.1,0,1.4-0.1c0.4,0,0.8-0.1,1.3-0.2h0.2v-3.9l-0.3,0.1C364.7,704.3,364.3,704.4,363.8,704.4z
		 M357,689.9v5c0,1.6-0.3,3.1-1,4.4c-0.6,1.3-1.5,2.4-2.5,3.3s-2.3,1.6-3.7,2.1c-2.3,0.8-4.9,1.1-7.3,0.3c-0.9-0.3-1.7-0.8-2.4-1.3
		c-0.7-0.6-1.2-1.3-1.6-2.1c-0.4-0.8-0.6-1.7-0.6-2.7c0-1.6,0.5-2.9,1.4-3.7c1-0.9,2.2-1.6,3.7-2c1.5-0.5,3.2-0.8,5.1-1.1
		c1.9-0.2,3.7-0.5,5.4-0.8c0.6-0.1,1.3-0.2,2-0.5C356.3,690.5,356.7,690.3,357,689.9z"/>
	<path style="fill:#DA1B2C;" d="M393.8,695.9c-0.1,1.4-0.5,2.7-1,3.8c-0.6,1.2-1.3,2.2-2.1,3c-0.9,0.8-1.9,1.5-3,2s-2.3,0.7-3.6,0.7
		c-1.9,0-3.7-0.4-5.1-1.2c-1.5-0.8-2.7-1.9-3.7-3.2c-1-1.3-1.7-2.9-2.2-4.6s-0.8-3.5-0.8-5.2c0-1.8,0.3-3.5,0.8-5.2s1.2-3.3,2.2-4.6
		c1-1.3,2.2-2.4,3.7-3.2c1.5-0.8,3.2-1.2,5.1-1.2c2.7,0,4.8,0.7,6.3,2.1s2.5,3.4,3.1,5.9v0.1h4.5v-0.2c-0.5-3.9-2-6.9-4.6-8.9
		c-2.5-2-5.7-2.9-9.4-2.9c-2.6,0-4.9,0.5-7,1.5c-2,1-3.7,2.3-5.1,3.9c-1.4,1.6-2.4,3.6-3.1,5.8c-0.7,2.2-1.1,4.6-1.1,7
		c0,2.5,0.3,4.8,1.1,7c0.7,2.2,1.8,4.1,3.1,5.8c1.4,1.6,3.1,3,5.1,3.9c2,1,4.4,1.4,7,1.4c3.9,0,7.1-1.2,9.6-3.5
		c2.5-2.3,4-5.6,4.6-9.8v-0.2h-4.5L393.8,695.9z"/>
	<path style="fill:#DA1B2C;" d="M439.6,672.9c-2.3,0-4.4,0.6-6.4,1.7c-1.9,1-3.3,2.6-4.3,4.7c-0.7-2-1.9-3.6-3.6-4.6
		c-1.9-1.1-3.9-1.7-6.2-1.7c-2.8,0-5.1,0.6-6.9,1.8c-1.7,1.1-3.1,2.7-4.2,4.7V674h-4.2v34.4h4.5v-19.2c0-1.8,0.2-3.4,0.6-4.9
		c0.4-1.5,1-2.8,1.8-3.9c0.8-1.1,1.8-2,3.1-2.6s2.8-0.9,4.5-0.9c1.3,0,2.4,0.2,3.3,0.6c0.9,0.4,1.6,1,2.1,1.7s0.9,1.6,1.2,2.6
		c0.2,1,0.4,2.1,0.4,3.2v23.3h4.5v-19.4c0-1.6,0.1-3.1,0.4-4.5c0.3-1.4,0.8-2.7,1.5-3.9c0.7-1.1,1.6-2,2.8-2.7c1.2-0.7,2.6-1,4.4-1
		c2.9,0,5,0.7,6.1,2.1c1.2,1.4,1.8,3.6,1.8,6.3v23.1h4.5V685C451.1,677,447.2,672.9,439.6,672.9z"/>
	<rect x="460" y="673.9" style="fill:#DA1B2C;" width="4.5" height="34.4"/>
	<rect x="473.5" y="660.8" style="fill:#DA1B2C;" width="4.5" height="47.5"/>
	<rect x="487" y="660.8" style="fill:#DA1B2C;" width="4.5" height="47.5"/>
	<path style="fill:#DA1B2C;" d="M527.7,704.4c-1.5,0-2.2-0.8-2.2-2.3V684c0-2.3-0.4-4.2-1.2-5.7c-0.8-1.5-1.7-2.6-3-3.4
		c-1.2-0.8-2.6-1.4-4.1-1.6c-3.5-0.7-7.1-0.5-10,0.2c-1.6,0.4-3.1,1.1-4.3,2.1c-1.2,0.9-2.2,2.2-2.9,3.6c-0.7,1.5-1.2,3.2-1.3,5.2
		v0.2h4.5v-0.2c0.1-2.7,0.9-4.7,2.6-5.9c1.6-1.2,3.8-1.8,6.3-1.8c1.2,0,2.4,0.1,3.4,0.3c1.1,0.2,2,0.5,2.8,1.1
		c0.8,0.5,1.4,1.2,1.8,2.1c0.5,0.9,0.7,2,0.7,3.4c0,0.9-0.1,1.6-0.3,2.2c-0.2,0.5-0.6,1-1,1.3s-1,0.5-1.6,0.6
		c-0.7,0.1-1.4,0.3-2.3,0.3c-2.2,0.3-4.4,0.6-6.6,0.8c-2.2,0.3-4.2,0.8-5.9,1.5c-1.7,0.7-3.2,1.8-4.3,3.1c-1.1,1.4-1.6,3.3-1.6,5.7
		c0,1.8,0.3,3.2,0.9,4.5c0.6,1.3,1.4,2.3,2.5,3.2c1.1,0.8,2.3,1.4,3.7,1.8s2.9,0.6,4.5,0.6c1.7,0,3.1-0.2,4.4-0.5
		c1.2-0.3,2.3-0.8,3.3-1.3c1-0.6,1.8-1.3,2.6-2.2c0.7-0.8,1.4-1.7,2.1-2.6c0,0.7,0.1,1.4,0.2,2c0.1,0.8,0.4,1.4,0.7,2
		c0.4,0.5,0.9,1,1.6,1.3s1.5,0.4,2.6,0.4c0.6,0,1.1,0,1.5-0.1c0.4,0,0.8-0.1,1.3-0.2h0.2v-3.9l-0.3,0.1
		C528.6,704.3,528.2,704.4,527.7,704.4z M520.9,689.9v5c0,1.6-0.3,3.1-0.9,4.4s-1.5,2.4-2.5,3.3s-2.3,1.6-3.7,2.1
		c-2.3,0.8-4.9,1.1-7.3,0.3c-0.9-0.3-1.7-0.7-2.4-1.3s-1.2-1.3-1.6-2.1c-0.4-0.8-0.6-1.7-0.6-2.7c0-1.6,0.5-2.8,1.4-3.7
		c1-0.9,2.2-1.6,3.7-2c1.5-0.5,3.2-0.8,5.1-1.1c1.9-0.2,3.7-0.5,5.4-0.8c0.6-0.1,1.3-0.2,2-0.5C520.1,690.5,520.6,690.3,520.9,689.9
		z"/>
	<path style="fill:#DA1B2C;" d="M562,680.7c-0.4-1.6-1.1-3.1-2.1-4.2s-2.3-2-3.9-2.7c-1.6-0.6-3.7-0.9-6-0.9c-2.4,0-4.7,0.6-6.8,1.9
		c-1.9,1.2-3.3,2.7-4.1,4.5v-5.4h-4.5v34.4h4.5v-20c0-1.7,0.3-3.2,0.8-4.6c0.5-1.4,1.2-2.6,2.1-3.6s2-1.8,3.2-2.4
		c1.3-0.6,2.7-0.9,4.4-0.9c1.6,0,3,0.3,4.1,0.8s2,1.2,2.6,2.1c0.6,0.9,1.1,2,1.4,3.2c0.3,1.2,0.4,2.6,0.4,4v21.4h4.5v-22.1
		C562.6,684.2,562.4,682.3,562,680.7z"/>
	<rect x="253.8" y="656" style="fill:#999999;" width="2.9" height="112"/>
	<path style="fill:#DA1B2C;" d="M462.4,660.6c-1.6,0-2.9,1.3-2.9,2.9s1.3,2.8,2.9,2.8c1.6,0,2.9-1.3,2.9-2.8
		C465.2,661.9,463.9,660.6,462.4,660.6z"/>
	<rect x="428.1" y="731.3" style="fill:#4E4E4E;" width="4.8" height="36.2"/>
	<rect x="280.4" y="717.6" style="fill:#4E4E4E;" width="4.8" height="49.9"/>
	<path style="fill:#4E4E4E;" d="M430.5,718.6c-1.7,0-3,1.3-3,3c0,1.7,1.3,3,3,3s3-1.3,3-3C433.5,720,432.1,718.6,430.5,718.6z"/>
	<path style="fill:#4E4E4E;" d="M299.3,755.5c0.4,1.7,1.1,3.2,2.1,4.5s2.2,2.5,3.7,3.3c1.5,0.9,3.3,1.3,5.3,1.3
		c3.2,0,5.7-0.8,7.5-2.5c1.8-1.7,3.1-3.9,3.7-6.7h4.4c-0.9,4.1-2.6,7.2-5.1,9.4c-2.5,2.2-6,3.3-10.5,3.3c-2.8,0-5.3-0.5-7.3-1.5
		c-2.1-1-3.7-2.4-5-4.1s-2.3-3.7-2.9-6s-0.9-4.7-0.9-7.2c0-2.4,0.3-4.7,0.9-6.9c0.6-2.3,1.6-4.3,2.9-6.1c1.3-1.8,3-3.2,5-4.3
		c2.1-1.1,4.5-1.6,7.3-1.6c2.9,0,5.3,0.6,7.3,1.7c2,1.2,3.7,2.7,5,4.5c1.3,1.9,2.2,4,2.7,6.4c0.6,2.4,0.8,4.9,0.7,7.4h-27.5
		C298.7,752.2,298.9,753.8,299.3,755.5z M321,742.1c-0.5-1.5-1.3-2.9-2.3-4.1s-2.1-2.1-3.5-2.8s-3-1.1-4.7-1.1
		c-1.8,0-3.4,0.4-4.8,1.1s-2.6,1.7-3.5,2.8c-1,1.2-1.7,2.5-2.3,4.1c-0.6,1.5-1,3.1-1.1,4.7H322C321.8,745.3,321.5,743.7,321,742.1z"
		/>
	<path style="fill:#4E4E4E;" d="M333,737.1c0.7-1.5,1.7-2.8,3-3.7c1.3-1,2.8-1.7,4.5-2.1c1.7-0.5,3.6-0.7,5.7-0.7
		c1.6,0,3.1,0.2,4.7,0.5c1.6,0.3,3,0.9,4.2,1.7s2.3,2,3.1,3.5s1.2,3.5,1.2,5.9v19c0,1.8,0.9,2.6,2.6,2.6c0.5,0,1-0.1,1.4-0.3v3.7
		c-0.5,0.1-1,0.2-1.4,0.2s-0.9,0.1-1.5,0.1c-1.1,0-2-0.2-2.7-0.5c-0.7-0.3-1.2-0.7-1.6-1.3c-0.4-0.6-0.6-1.2-0.7-2
		c-0.1-0.8-0.2-1.6-0.2-2.5h-0.1c-0.8,1.2-1.6,2.2-2.4,3.1c-0.8,0.9-1.7,1.7-2.7,2.3c-1,0.6-2.1,1.1-3.4,1.4
		c-1.3,0.3-2.8,0.5-4.5,0.5s-3.2-0.2-4.7-0.6s-2.7-1-3.8-1.9c-1.1-0.9-1.9-1.9-2.6-3.3c-0.6-1.3-0.9-2.9-0.9-4.7
		c0-2.5,0.6-4.4,1.7-5.9c1.1-1.4,2.6-2.5,4.4-3.2c1.8-0.7,3.9-1.3,6.2-1.6c2.3-0.3,4.6-0.6,7-0.9c0.9-0.1,1.7-0.2,2.4-0.3
		c0.7-0.1,1.3-0.4,1.7-0.7c0.5-0.3,0.8-0.8,1.1-1.4c0.3-0.6,0.4-1.4,0.4-2.4c0-1.5-0.2-2.7-0.7-3.6c-0.5-0.9-1.2-1.7-2-2.3
		c-0.9-0.6-1.8-0.9-3-1.1c-1.1-0.2-2.3-0.3-3.6-0.3c-2.8,0-5,0.7-6.8,2s-2.7,3.4-2.8,6.3h-4.4C331.8,740.4,332.3,738.6,333,737.1z
		 M354.9,747.8c-0.3,0.5-0.8,0.9-1.6,1.1s-1.5,0.4-2.1,0.5c-1.9,0.3-3.8,0.6-5.7,0.9c-2,0.3-3.8,0.6-5.4,1.1c-1.6,0.5-2.9,1.2-4,2.2
		c-1,0.9-1.6,2.3-1.6,4.1c0,1.1,0.2,2.1,0.7,2.9c0.4,0.9,1,1.6,1.8,2.2c0.7,0.6,1.6,1.1,2.6,1.4c1,0.3,2,0.5,3,0.5
		c1.7,0,3.3-0.3,4.8-0.8s2.9-1.2,4-2.2s2-2.1,2.7-3.5c0.7-1.4,1-3,1-4.7v-5.7H354.9z"/>
	<path style="fill:#4E4E4E;" d="M372.1,731.5v8.4h0.1c1.1-2.9,2.8-5.2,5.2-6.7c2.3-1.6,5.1-2.3,8.4-2.1v4.4c-2-0.1-3.8,0.2-5.4,0.8
		c-1.6,0.6-3,1.5-4.2,2.7c-1.2,1.2-2.1,2.5-2.7,4.1c-0.6,1.6-1,3.3-1,5.2v19.1h-4.4v-35.8h4V731.5z"/>
	<path style="fill:#4E4E4E;" d="M395.5,731.5v6.2h0.1c0.8-2.2,2.3-3.9,4.4-5.2c2.1-1.3,4.5-2,7-2s4.6,0.3,6.3,1
		c1.7,0.6,3,1.6,4.1,2.7c1,1.2,1.7,2.6,2.1,4.3c0.4,1.7,0.6,3.6,0.6,5.8v23h-4.4V745c0-1.5-0.1-2.9-0.4-4.3
		c-0.3-1.3-0.8-2.5-1.5-3.4c-0.7-1-1.6-1.7-2.8-2.3s-2.6-0.8-4.4-0.8c-1.8,0-3.3,0.3-4.7,0.9s-2.5,1.5-3.5,2.6
		c-0.9,1.1-1.7,2.4-2.2,3.9s-0.8,3.1-0.9,4.9v20.9h-4.4v-35.8h4.6V731.5z"/>
	<path style="fill:#4E4E4E;" d="M445.5,731.5v6.2h0.1c0.8-2.2,2.3-3.9,4.4-5.2c2.1-1.3,4.5-2,7-2s4.6,0.3,6.3,1
		c1.7,0.6,3,1.6,4.1,2.7c1,1.2,1.7,2.6,2.1,4.3c0.4,1.7,0.6,3.6,0.6,5.8v23h-4.4V745c0-1.5-0.1-2.9-0.4-4.3
		c-0.3-1.3-0.8-2.5-1.5-3.4c-0.7-1-1.6-1.7-2.8-2.3s-2.6-0.8-4.4-0.8c-1.8,0-3.3,0.3-4.7,0.9s-2.5,1.5-3.5,2.6
		c-0.9,1.1-1.7,2.4-2.2,3.9s-0.8,3.1-0.9,4.9v20.9h-4.4v-35.8h4.6V731.5z"/>
	<path style="fill:#4E4E4E;" d="M507.8,771.5c-0.6,2.1-1.5,3.9-2.7,5.4s-2.9,2.6-4.9,3.4s-4.5,1.2-7.4,1.2c-1.8,0-3.6-0.2-5.3-0.6
		c-1.7-0.4-3.2-1.1-4.6-1.9c-1.4-0.9-2.5-2-3.4-3.4c-0.9-1.4-1.4-3-1.6-4.9h4.4c0.2,1.3,0.7,2.5,1.4,3.4c0.7,0.9,1.5,1.6,2.4,2.2
		c0.9,0.6,2,1,3.2,1.2c1.2,0.3,2.3,0.4,3.5,0.4c4.1,0,7-1.2,8.8-3.5s2.7-5.6,2.7-10v-4.9h-0.1c-1,2.2-2.5,4-4.5,5.3
		c-2,1.3-4.3,2-6.9,2c-2.9,0-5.3-0.5-7.3-1.4s-3.7-2.3-5-3.9c-1.3-1.7-2.3-3.6-2.9-5.9c-0.6-2.2-0.9-4.6-0.9-7.2
		c0-2.5,0.4-4.8,1.1-7c0.7-2.2,1.8-4.1,3.1-5.8c1.4-1.6,3.1-2.9,5.1-3.9c2-0.9,4.3-1.4,6.9-1.4c1.3,0,2.6,0.2,3.8,0.6
		c1.2,0.4,2.3,0.9,3.2,1.6c1,0.7,1.8,1.4,2.6,2.3s1.4,1.8,1.8,2.8h0.1v-6.2h4.4v32.9C508.7,767,508.4,769.4,507.8,771.5z M497.8,762
		c1.4-0.8,2.6-1.9,3.6-3.2s1.7-2.8,2.2-4.5s0.7-3.5,0.7-5.3s-0.2-3.5-0.6-5.3c-0.4-1.8-1.1-3.4-2-4.8s-2.1-2.6-3.6-3.5
		s-3.2-1.3-5.3-1.3s-3.9,0.4-5.3,1.3c-1.5,0.9-2.7,2-3.7,3.4c-1,1.4-1.7,3-2.1,4.7c-0.4,1.8-0.7,3.6-0.7,5.4s0.2,3.6,0.7,5.3
		s1.2,3.2,2.1,4.5c1,1.3,2.2,2.4,3.7,3.2c1.5,0.8,3.2,1.2,5.3,1.2C494.7,763.2,496.4,762.8,497.8,762z"/>
</g>
</svg>
