<svg id="Layer_1" data-name="Layer 1" xmlns="http://www.w3.org/2000/svg" viewBox="0 0 600 600"><defs><style>.cls-1{fill:#142a35;}</style></defs><title>Artboard 1</title><path class="cls-1" d="M600,600H0V0H600ZM50,462.74V590.88c98.37-117.48,242-182.29,242-36.54,0,61.47,55.83-3.32,99.39-38.88,62.12-50.9,142.08-45.41,156.38,50.16H550V462.56c0-126-90.21-138.4-158.56-82.28C347.85,415.93,292,480.68,292,419.15c0-59.07-23.95-83.63-58.8-83.63-51.14,0-125.93,52.89-183.2,127.22m0-173.34V417.54c98.38-117.48,242-182.28,242-36.53,0,61.46,55.83-3.33,99.39-38.88,62.12-50.92,142.08-45.41,156.38,50.17H550V289.21c0-126-90.21-138.38-158.56-82.27-43.56,35.65-99.39,100.4-99.39,38.87,0-59.07-23.95-83.63-58.8-83.63-51.14,0-125.92,52.89-183.2,127.22"/></svg>