<?xml version="1.0" encoding="utf-8"?>
<!-- Generator: Adobe Illustrator 19.2.1, SVG Export Plug-In . SVG Version: 6.00 Build 0)  -->
<svg version="1.1" id="Layer_1" xmlns="http://www.w3.org/2000/svg" xmlns:xlink="http://www.w3.org/1999/xlink" x="0px" y="0px"
	 viewBox="0 0 71 63.9" style="enable-background:new 0 0 71 63.9;" xml:space="preserve">
<style type="text/css">
	.st0{fill:url(#SVGID_1_);}
	.st1{fill:url(#SVGID_2_);}
</style>
<title>ML_logo</title>
<linearGradient id="SVGID_1_" gradientUnits="userSpaceOnUse" x1="0" y1="22.2437" x2="71" y2="22.2437" gradientTransform="matrix(1 0 0 -1 0 66)">
	<stop  offset="0" style="stop-color:#B8221F"/>
	<stop  offset="8.000000e-02" style="stop-color:#BF211E"/>
	<stop  offset="0.2" style="stop-color:#D21E1D"/>
	<stop  offset="0.49" style="stop-color:#E67058"/>
	<stop  offset="0.5" style="stop-color:#DB5D4A"/>
	<stop  offset="0.51" style="stop-color:#CE473A"/>
	<stop  offset="0.53" style="stop-color:#C4362E"/>
	<stop  offset="0.55" style="stop-color:#BD2B25"/>
	<stop  offset="0.58" style="stop-color:#B92420"/>
	<stop  offset="0.66" style="stop-color:#B8221F"/>
	<stop  offset="0.72" style="stop-color:#C4362E"/>
	<stop  offset="0.84" style="stop-color:#E36B54"/>
	<stop  offset="0.85" style="stop-color:#E67058"/>
	<stop  offset="1" style="stop-color:#B8221F"/>
</linearGradient>
<path class="st0" d="M71,43.2c0-17.9-12.8-19.6-22.5-11.7c-6.2,5.1-14.1,14.2-14.1,5.5c0-20.7-20.7-11.5-34.4,6.2v19.2
	c13.7-17.7,34.4-26.9,34.4-6.2c0,8.7,7.9-0.5,14.1-5.5c8.8-7.2,20.2-6.5,22.2,7.2H71V43.2L71,43.2z"/>
<linearGradient id="SVGID_2_" gradientUnits="userSpaceOnUse" x1="0" y1="47.8658" x2="71" y2="47.8658" gradientTransform="matrix(1 0 0 -1 0 66)">
	<stop  offset="0" style="stop-color:#B8221F"/>
	<stop  offset="8.000000e-02" style="stop-color:#BF211E"/>
	<stop  offset="0.2" style="stop-color:#D21E1D"/>
	<stop  offset="0.49" style="stop-color:#E67058"/>
	<stop  offset="0.5" style="stop-color:#DB5D4A"/>
	<stop  offset="0.51" style="stop-color:#CE473A"/>
	<stop  offset="0.53" style="stop-color:#C4362E"/>
	<stop  offset="0.55" style="stop-color:#BD2B25"/>
	<stop  offset="0.58" style="stop-color:#B92420"/>
	<stop  offset="0.66" style="stop-color:#B8221F"/>
	<stop  offset="0.72" style="stop-color:#C4362E"/>
	<stop  offset="0.84" style="stop-color:#E36B54"/>
	<stop  offset="0.85" style="stop-color:#E67058"/>
	<stop  offset="1" style="stop-color:#B8221F"/>
</linearGradient>
<path class="st1" d="M71,18C71,0.2,58.2-1.6,48.5,6.4c-6.2,5.1-14.1,14.3-14.1,5.5C34.4-8.8,13.7,0.3,0,18.1v18.2
	c14-16.7,34.4-25.9,34.4-5.2c0,8.7,7.9-0.5,14.1-5.5c8.8-7.2,20.2-6.4,22.2,7.1H71V18L71,18z"/>
</svg>
