<?xml version="1.0" encoding="utf-8"?>
<!-- Generator: Adobe Illustrator 19.2.1, SVG Export Plug-In . SVG Version: 6.00 Build 0)  -->
<svg version="1.1" id="Layer_1" xmlns="http://www.w3.org/2000/svg" xmlns:xlink="http://www.w3.org/1999/xlink" x="0px" y="0px"
	 viewBox="0 0 71 63.9" style="enable-background:new 0 0 71 63.9;" xml:space="preserve">
<style type="text/css">
	.st0{fill:#FFFFFF;}
</style>
<title>ML_logo</title>
<path class="st0" d="M71,43.2c0-17.9-12.8-19.6-22.5-11.7c-6.2,5.1-14.1,14.2-14.1,5.5c0-20.7-20.7-11.5-34.4,6.2v19.2
	c13.7-17.7,34.4-26.9,34.4-6.2c0,8.7,7.9-0.5,14.1-5.5c8.8-7.2,20.2-6.5,22.2,7.2H71V43.2L71,43.2z"/>
<path class="st0" d="M71,18C71,0.2,58.2-1.6,48.5,6.4c-6.2,5.1-14.1,14.3-14.1,5.5C34.4-8.8,13.7,0.3,0,18.1v18.2
	c14-16.7,34.4-25.9,34.4-5.2c0,8.7,7.9-0.5,14.1-5.5c8.8-7.2,20.2-6.4,22.2,7.1H71V18L71,18z"/>
</svg>
