<svg id="Layer_1" data-name="Layer 1" xmlns="http://www.w3.org/2000/svg" xmlns:xlink="http://www.w3.org/1999/xlink" viewBox="0 0 600 63.92"><defs><style>.cls-1{fill:url(#MacWave);}.cls-2{fill:url(#MacWave-2);}.cls-3{fill:#999;}.cls-4{fill:#d61221;}.cls-5{fill:#262626;}</style><linearGradient id="MacWave" y1="43.76" x2="71.02" y2="43.76" gradientUnits="userSpaceOnUse"><stop offset="0" stop-color="#b8221f"/><stop offset="0.08" stop-color="#bf211e"/><stop offset="0.2" stop-color="#d21e1d"/><stop offset="0.49" stop-color="#e67058"/><stop offset="0.5" stop-color="#db5d4a"/><stop offset="0.51" stop-color="#ce473a"/><stop offset="0.53" stop-color="#c4362e"/><stop offset="0.55" stop-color="#bd2b25"/><stop offset="0.58" stop-color="#b92420"/><stop offset="0.66" stop-color="#b8221f"/><stop offset="0.72" stop-color="#c4362e"/><stop offset="0.84" stop-color="#e36b54"/><stop offset="0.85" stop-color="#e67058"/><stop offset="1" stop-color="#b8221f"/></linearGradient><linearGradient id="MacWave-2" x1="0.01" y1="18.14" x2="71.02" y2="18.14" xlink:href="#MacWave"/></defs><title>ML_logo</title><path class="cls-1" d="M71,43.18C71,25.29,58.21,23.54,48.5,31.5,42.31,36.56,34.38,45.74,34.38,37c0-20.71-20.7-11.55-34.38,6.21V62.39C13.69,44.65,34.38,35.51,34.38,56.2c0,8.74,7.93-.45,14.11-5.51,8.82-7.23,20.18-6.45,22.21,7.15H71V43.18h0Z"/><path class="cls-2" d="M71,18C71,0.15,58.21-1.61,48.5,6.36c-6.19,5.07-14.11,14.26-14.11,5.52C34.38-8.83,13.69.32,0,18.07V36.27c14-16.69,34.37-25.89,34.37-5.2,0,8.73,7.93-.47,14.11-5.51,8.82-7.24,20.18-6.45,22.21,7.12H71V18h0Z"/><rect class="cls-3" x="92.64" y="2.18" width="2.67" height="61.74"/><path class="cls-4" d="M117.26,18.59h3.61V24h0.19a11.21,11.21,0,0,1,10.52-6.35c4.23,0,8,2.05,9.21,6.29A10.86,10.86,0,0,1,151,17.66c7,0,10.65,3.67,10.65,11.27V50.72h-3.92V29.11c0-5.29-2-8.15-7.59-8.15-6.79,0-8.72,5.6-8.72,11.58V50.72H137.5V28.93c0.06-4.36-1.74-8-6.72-8-6.79,0-9.53,5.1-9.59,11.83V50.72h-3.92V18.59Z"/><path class="cls-4" d="M168.75,28.43c0.37-7.53,5.67-10.77,13-10.77,5.66,0,11.83,1.74,11.83,10.33V45.05a2.09,2.09,0,0,0,2.3,2.36,3.66,3.66,0,0,0,1.25-.25v3.3a10.75,10.75,0,0,1-2.55.25c-4,0-4.61-2.24-4.61-5.6h-0.13c-2.74,4.17-5.54,6.54-11.7,6.54-5.91,0-10.77-2.92-10.77-9.4,0-9,8.78-9.34,17.25-10.33,3.24-.37,5-0.81,5-4.36,0-5.29-3.8-6.6-8.4-6.6-4.86,0-8.47,2.24-8.59,7.47h-3.92Zm20.92,4.73h-0.12c-0.5.93-2.24,1.24-3.3,1.43-6.66,1.18-14.94,1.12-14.94,7.41,0,3.92,3.49,6.35,7.16,6.35,6,0,11.27-3.8,11.21-10.09v-5.1Z"/><path class="cls-4" d="M224.1,28.68C223,23.88,220.12,21,215,21c-7.53,0-11.27,6.85-11.27,13.7s3.73,13.7,11.27,13.7c4.86,0,8.84-3.8,9.34-9.15h3.92c-1.06,7.72-6.1,12.45-13.26,12.45-9.84,0-15.19-7.78-15.19-17s5.35-17,15.19-17c6.85,0,12.14,3.67,13,11H224.1Z"/><path class="cls-4" d="M233.76,18.59h3.61V24h0.19a11.22,11.22,0,0,1,10.52-6.35c4.24,0,8,2.05,9.21,6.29a10.86,10.86,0,0,1,10.21-6.29c7,0,10.65,3.67,10.65,11.27V50.72h-3.92V29.11c0-5.29-2-8.15-7.6-8.15-6.78,0-8.72,5.6-8.72,11.58V50.72H254V28.93c0.06-4.36-1.74-8-6.73-8-6.79,0-9.53,5.1-9.59,11.83V50.72h-3.92V18.59Z"/><path class="cls-4" d="M285.68,18.59h3.92V50.72h-3.92V18.59Z"/><path class="cls-4" d="M297.2,6.26h3.92V50.72H297.2V6.26Z"/><path class="cls-4" d="M308.72,6.26h3.92V50.72h-3.92V6.26Z"/><path class="cls-4" d="M319.8,28.43c0.37-7.53,5.67-10.77,13-10.77,5.66,0,11.83,1.74,11.83,10.33V45.05a2.09,2.09,0,0,0,2.3,2.36,3.68,3.68,0,0,0,1.25-.25v3.3a10.77,10.77,0,0,1-2.55.25c-4,0-4.61-2.24-4.61-5.6h-0.12c-2.74,4.17-5.54,6.54-11.71,6.54-5.91,0-10.77-2.92-10.77-9.4,0-9,8.78-9.34,17.24-10.33,3.24-.37,5-0.81,5-4.36,0-5.29-3.8-6.6-8.4-6.6-4.86,0-8.47,2.24-8.59,7.47H319.8Zm20.92,4.73h-0.13c-0.5.93-2.24,1.24-3.3,1.43-6.66,1.18-14.94,1.12-14.94,7.41,0,3.92,3.49,6.35,7.16,6.35,6,0,11.27-3.8,11.21-10.09v-5.1Z"/><path class="cls-4" d="M352.42,18.59h3.92v5.54h0.12c1.43-3.86,5.73-6.47,10.27-6.47,9,0,11.77,4.73,11.77,12.39V50.72h-3.92v-20c0-5.54-1.81-9.71-8.16-9.71s-10,4.73-10.09,11V50.72h-3.92V18.59Z"/><path class="cls-5" d="M397.66,6.26h3.92V50.72h-3.92V6.26Z"/><path class="cls-5" d="M411.42,35.71c0.06,5.73,3,12.64,10.58,12.64,5.73,0,8.84-3.36,10.08-8.22H436c-1.68,7.28-5.92,11.52-14,11.52-10.21,0-14.51-7.84-14.51-17,0-8.47,4.3-17,14.51-17s14.44,9,14.13,18.05H411.42Zm20.79-3.3C432,26.5,428.35,21,422,21s-10,5.6-10.58,11.46h20.79Z"/><path class="cls-5" d="M441,28.43c0.38-7.53,5.67-10.77,13-10.77,5.67,0,11.83,1.74,11.83,10.33V45.05a2.09,2.09,0,0,0,2.3,2.36,3.66,3.66,0,0,0,1.25-.25v3.3a10.76,10.76,0,0,1-2.55.25c-4,0-4.61-2.24-4.61-5.6h-0.12c-2.74,4.17-5.54,6.54-11.71,6.54-5.91,0-10.77-2.92-10.77-9.4,0-9,8.78-9.34,17.24-10.33,3.24-.37,5-0.81,5-4.36,0-5.29-3.8-6.6-8.41-6.6-4.86,0-8.47,2.24-8.59,7.47H441ZM462,33.16h-0.12c-0.5.93-2.24,1.24-3.3,1.43-6.66,1.18-14.94,1.12-14.94,7.41,0,3.92,3.49,6.35,7.16,6.35,6,0,11.27-3.8,11.21-10.09v-5.1Z"/><path class="cls-5" d="M473.74,18.59h3.61v7.53h0.12a11.87,11.87,0,0,1,12.14-8v3.92c-7.1-.37-12,4.86-12,11.52V50.72h-3.92V18.59Z"/><path class="cls-5" d="M494.41,18.59h3.92v5.54h0.12c1.43-3.86,5.73-6.47,10.27-6.47,9,0,11.77,4.73,11.77,12.39V50.72h-3.92v-20c0-5.54-1.8-9.71-8.16-9.71s-10,4.73-10.08,11V50.72h-3.92V18.59Z"/><path class="cls-5" d="M528,18.59h3.92V50.72H528V18.59Z"/><path class="cls-5" d="M539.36,18.59h3.92v5.54h0.12c1.43-3.86,5.73-6.47,10.27-6.47,9,0,11.77,4.73,11.77,12.39V50.72h-3.92v-20c0-5.54-1.8-9.71-8.16-9.71s-10,4.73-10.08,11V50.72h-3.92V18.59Z"/><path class="cls-5" d="M600,48.1c-0.06,9.59-3.74,15.44-14.26,15.44-6.41,0-12.76-2.86-13.32-9.71h3.92c0.87,4.73,5,6.41,9.4,6.41,7.22,0,10.34-4.3,10.34-12.14V43.74H596a11.13,11.13,0,0,1-10.21,6.6c-10.27,0-14.51-7.35-14.51-16.5,0-8.84,5.23-16.19,14.51-16.19A11.3,11.3,0,0,1,596,24.13h0.13V18.59H600V48.1Zm-3.92-13.82C596.08,28,593.15,21,585.74,21s-10.58,6.66-10.58,13.32c0,6.47,3.36,12.76,10.58,12.76C592.53,47,596.08,40.82,596.08,34.28Z"/><path class="cls-4" d="M287.64,6.26A2.68,2.68,0,1,0,290.32,9,2.7,2.7,0,0,0,287.64,6.26Z"/><circle class="cls-5" cx="529.93" cy="8.91" r="2.64"/></svg>