<svg xmlns="http://www.w3.org/2000/svg" xmlns:xlink="http://www.w3.org/1999/xlink" viewBox="0 0 600 600"><defs><style>.cls-1,.cls-10,.cls-2{fill:none;}.cls-2,.cls-5{stroke:#1c1b1a;}.cls-2{stroke-width:3.6px;}.cls-3{isolation:isolate;}.cls-4{fill:#142a35;}.cls-10,.cls-5{stroke-miterlimit:10;}.cls-5{stroke-width:12.6px;fill:url(#_6_lpi_30_);}.cls-6{opacity:0.66;mix-blend-mode:multiply;}.cls-7{fill:#fff;}.cls-8{clip-path:url(#clip-path);}.cls-9{fill:#ffc196;}.cls-10{stroke:#000;stroke-width:14px;}</style><pattern id="_6_lpi_30_" data-name="6 lpi 30%" width="72" height="72" patternTransform="translate(162.96 -23.76) rotate(180) scale(0.94 1)" patternUnits="userSpaceOnUse" viewBox="0 0 72 72"><rect class="cls-1" width="72" height="72"/><line class="cls-2" x1="71.75" y1="66" x2="144.25" y2="66"/><line class="cls-2" x1="71.75" y1="42" x2="144.25" y2="42"/><line class="cls-2" x1="71.75" y1="18" x2="144.25" y2="18"/><line class="cls-2" x1="71.75" y1="54" x2="144.25" y2="54"/><line class="cls-2" x1="71.75" y1="30" x2="144.25" y2="30"/><line class="cls-2" x1="71.75" y1="6" x2="144.25" y2="6"/><line class="cls-2" x1="-0.25" y1="66" x2="72.25" y2="66"/><line class="cls-2" x1="-0.25" y1="42" x2="72.25" y2="42"/><line class="cls-2" x1="-0.25" y1="18" x2="72.25" y2="18"/><line class="cls-2" x1="-0.25" y1="54" x2="72.25" y2="54"/><line class="cls-2" x1="-0.25" y1="30" x2="72.25" y2="30"/><line class="cls-2" x1="-0.25" y1="6" x2="72.25" y2="6"/><line class="cls-2" x1="-72.25" y1="66" x2="0.25" y2="66"/><line class="cls-2" x1="-72.25" y1="42" x2="0.25" y2="42"/><line class="cls-2" x1="-72.25" y1="18" x2="0.25" y2="18"/><line class="cls-2" x1="-72.25" y1="54" x2="0.25" y2="54"/><line class="cls-2" x1="-72.25" y1="30" x2="0.25" y2="30"/><line class="cls-2" x1="-72.25" y1="6" x2="0.25" y2="6"/></pattern><clipPath id="clip-path"><path class="cls-1" d="M299,77.42c-115.1-1.4-209.4,90.8-210.8,205.9s90.8,209.4,205.9,210.8,209.4-90.8,210.8-205.9S414,78.82,299,77.42Z"/></clipPath></defs><title>Artboard 1</title><g class="cls-3"><g id="Layer_1" data-name="Layer 1"><rect class="cls-4" x="-0.17" y="-0.33" width="600" height="600"/><rect class="cls-5" x="-0.14" y="4.28" width="599.94" height="590.78"/><g id="shadow"><circle class="cls-6" cx="318.89" cy="322.72" r="208.39" transform="translate(-7.57 637.77) rotate(-89.32)"/><path class="cls-7" d="M298,75.42c-115.1-1.4-209.4,90.8-210.8,205.9s90.8,209.4,205.9,210.8,209.4-90.8,210.8-205.9S413,76.82,298,75.42Z"/></g><g class="cls-8"><path class="cls-9" d="M306.36,349.31c-77.89,0-142.06,59.74-149.57,136.3-.49,5,1,18.43,1,23.52h0c69.43,4,186.15-11.84,298.92,2.9.05-3.58,0-16.18-.21-19.71C452.13,412.71,386.62,349.31,306.36,349.31Z"/><ellipse class="cls-9" cx="306.36" cy="275.22" rx="69.67" ry="68.08"/><path class="cls-10" d="M283.69,336.45c-77.89,0-142.06,59.74-149.57,136.3-.49,5,1,18.43,1,23.52h0c69.43,4,186.15-11.84,298.92,2.9.05-3.58,0-16.18-.21-19.71C429.46,399.85,364,336.45,283.69,336.45Z"/><ellipse class="cls-10" cx="283.69" cy="262.35" rx="69.67" ry="68.08"/></g><path d="M165,124.32a8.25,8.25,0,0,1-4.9-14.9c1.5-1.1,3.1-2.2,4.6-3.3l5.4-3.6a8.24,8.24,0,1,1,9,13.8c-1.7,1.1-3.3,2.2-5,3.3-1.4,1-2.9,2-4.3,3A7.25,7.25,0,0,1,165,124.32Z"/><path d="M128.58,158.52a8.2,8.2,0,0,1-6.3-13.5,214.82,214.82,0,0,1,19.2-20.1,8.28,8.28,0,0,1,11.2,12.2,194.5,194.5,0,0,0-17.7,18.6A9,9,0,0,1,128.58,158.52Z"/><path d="M286.28,496c-117.9,0-213.9-95.9-213.9-213.9a213.08,213.08,0,0,1,32.7-113.7,8.27,8.27,0,1,1,14,8.8,197,197,0,0,0-30.2,104.9c0,108.8,88.5,197.4,197.4,197.4s197.4-88.5,197.4-197.4-88.5-197.4-197.4-197.4a196.12,196.12,0,0,0-87.2,20.2,8.25,8.25,0,0,1-7.3-14.8,211,211,0,0,1,94.4-21.9c117.9,0,213.9,95.9,213.9,213.9S404.18,496,286.28,496Z"/><path d="M170,127.32a8.25,8.25,0,0,1-4.9-14.9c1.5-1.1,3.1-2.2,4.6-3.3l5.4-3.6a8.24,8.24,0,1,1,9,13.8c-1.7,1.1-3.3,2.2-5,3.3-1.4,1-2.9,2-4.3,3A7.25,7.25,0,0,1,170,127.32Z"/><path d="M133.58,161.52a8.2,8.2,0,0,1-6.3-13.5,214.82,214.82,0,0,1,19.2-20.1,8.28,8.28,0,0,1,11.2,12.2,194.5,194.5,0,0,0-17.7,18.6A9,9,0,0,1,133.58,161.52Z"/><path d="M291.28,499c-117.9,0-213.9-95.9-213.9-213.9a213.08,213.08,0,0,1,32.7-113.7,8.27,8.27,0,1,1,14,8.8,197,197,0,0,0-30.2,104.9c0,108.8,88.5,197.4,197.4,197.4s197.4-88.5,197.4-197.4-88.5-197.4-197.4-197.4a196.12,196.12,0,0,0-87.2,20.2,8.25,8.25,0,0,1-7.3-14.8,211,211,0,0,1,94.4-21.9c117.9,0,213.9,95.9,213.9,213.9S409.18,499,291.28,499Z"/></g></g></svg>