<?xml version="1.0" encoding="iso-8859-1"?>
<!-- Generator: Adobe Illustrator 19.1.0, SVG Export Plug-In . SVG Version: 6.00 Build 0)  -->
<svg version="1.1" id="Layer_1" xmlns="http://www.w3.org/2000/svg" xmlns:xlink="http://www.w3.org/1999/xlink" x="0px" y="0px"
	 viewBox="0 0 986.954 139.514" style="enable-background:new 0 0 986.954 139.514;" xml:space="preserve">
<path style="fill:#FFFFFF;" d="M118.036,120.282C88.726,152.397,2.599,134.585,2.599,134.585S-8.999,42.193,16.807,18.395
	C49.303-11.577,132.244,4.096,132.244,4.096S147.349,88.168,118.036,120.282 M115.316,83.997c0-23.816-17.048-26.135-29.963-15.553
	c-8.235,6.736-18.782,18.958-18.782,7.342c0-27.563-27.548-15.364-45.751,8.266l0.018,25.508
	c18.2-23.609,45.733-35.775,45.733-8.245c0,11.635,10.548-0.597,18.782-7.327c11.736-9.616,26.849-8.584,29.549,9.514h0.414V83.997z
	 M115.307,50.543c0-23.816-17.048-26.153-29.963-15.55c-8.235,6.738-18.783,18.967-18.783,7.348
	c0-27.554-27.533-15.379-45.733,8.233V74.8c18.594-22.208,45.733-34.461,45.733-6.916c0,11.623,10.548-0.624,18.783-7.336
	c11.735-9.631,26.852-8.587,29.549,9.475h0.414V50.543z"/>
<path style="fill:#FFFFFF;" d="M961.288,90.854c-8.696,0-13.575-6.999-13.575-16.438c0-9.12,4.56-15.059,12.726-15.059
	c7.317,0,13.362,3.288,13.362,15.59C973.802,87.142,967.757,90.854,961.288,90.854 M943.259,110.579l-4.03,10.287
	c5.197,2.757,12.408,4.666,19.195,4.666c14.105,0,28.528-7,28.528-25.559V49.175h-12.62v4.136c0,0.848,0.106,1.485,0.106,1.485
	h-0.318c0,0-4.242-6.893-16.014-6.893c-15.59,0-23.968,12.09-23.968,26.937c0,14.847,8.802,27.361,24.286,27.361
	c7.211,0,11.878-2.545,15.059-7.318h0.212c0,0-0.212,1.591-0.212,2.863v3.182c0,9.651-6.999,13.15-15.271,13.15
	C950.047,114.079,943.259,110.579,943.259,110.579 M872.735,103.262h13.469V78.446c0-2.545,0.212-4.984,0.958-7.211
	c2.011-6.469,7.314-11.029,14.529-11.029c6.89,0,8.587,4.454,8.587,11.029v32.028h13.362V68.477
	c0-14.317-6.787-20.574-18.771-20.574c-10.923,0-16.859,6.681-19.195,11.242h-0.212c0,0,0.212-1.697,0.212-3.712v-6.257h-12.938
	V103.262z M844.423,103.262h13.469V49.175h-13.469V103.262z M779.413,103.262h13.469V78.446c0-2.545,0.212-4.984,0.954-7.211
	c2.015-6.469,7.318-11.029,14.529-11.029c6.893,0,8.59,4.454,8.59,11.029v32.028h13.362V68.477c0-14.317-6.787-20.574-18.771-20.574
	c-10.923,0-16.862,6.681-19.195,11.242h-0.212c0,0,0.212-1.697,0.212-3.712v-6.257h-12.938V103.262z M737.735,103.262h13.469V81.839
	c0-3.181,0.318-6.151,1.167-8.802c2.545-8.06,9.014-11.348,14.741-11.348c1.803,0,3.182,0.212,3.182,0.212V48.645
	c0,0-1.167-0.212-2.439-0.212c-8.272,0-14.741,6.151-17.18,13.893h-0.212c0,0,0.212-1.803,0.212-3.818v-9.333h-12.938V103.262z
	 M690.117,87.036c0-7.53,11.135-8.484,18.029-8.484h2.333v1.273c0,6.575-5.091,14.211-12.196,14.211
	C692.769,94.035,690.117,90.641,690.117,87.036 M676.543,87.672c0,10.817,8.696,16.862,18.347,16.862
	c12.302,0,16.544-9.545,16.438-9.545h0.212c0,0-0.212,1.697-0.212,3.818v4.454h12.408v-33.83c0-13.681-8.272-21.528-22.483-21.528
	c-12.832,0-21.21,6.681-21.21,6.681l5.091,9.651c0,0,7.105-5.197,14.847-5.197c5.939,0,10.393,2.439,10.393,9.545v0.742h-1.803
	C699.768,69.325,676.543,70.492,676.543,87.672 M632.747,69.537c1.273-6.999,6.045-11.241,12.938-11.241
	c5.939,0,10.499,3.924,10.711,11.241H632.747z M618.536,76.218c0,15.378,11.135,28.316,29.058,28.316
	c13.469,0,21.741-7.742,21.741-7.742l-5.197-9.651c0,0-6.893,5.939-15.59,5.939c-8.06,0-15.378-4.878-16.226-14.317h37.33
	c0,0,0.318-3.606,0.318-5.196c0-14.317-8.378-25.665-23.968-25.665C629.883,47.903,618.536,59.568,618.536,76.218 M567.313,103.262
	h46.239V91.49h-32.558V27.965h-13.681V103.262z"/>
<path style="fill:#FFFFFF;" d="M507.007,90.854c-8.696,0-13.575-6.999-13.575-16.438c0-9.12,4.56-15.059,12.726-15.059
	c7.318,0,13.363,3.288,13.363,15.59C519.521,87.142,513.476,90.854,507.007,90.854 M488.978,110.579l-4.03,10.287
	c5.197,2.757,12.408,4.666,19.195,4.666c14.105,0,28.528-7,28.528-25.559V49.175h-12.62v4.136c0,0.848,0.106,1.485,0.106,1.485
	h-0.318c0,0-4.242-6.893-16.014-6.893c-15.59,0-23.968,12.09-23.968,26.937c0,14.847,8.802,27.361,24.286,27.361
	c7.212,0,11.878-2.545,15.059-7.318h0.212c0,0-0.212,1.591-0.212,2.863v3.182c0,9.651-6.999,13.15-15.272,13.15
	C495.766,114.079,488.978,110.579,488.978,110.579 M418.454,103.262h13.469V78.446c0-2.545,0.212-4.984,0.954-7.211
	c2.015-6.469,7.318-11.029,14.529-11.029c6.893,0,8.59,4.454,8.59,11.029v32.028h13.363V68.477c0-14.317-6.787-20.574-18.771-20.574
	c-10.923,0-16.862,6.681-19.195,11.242h-0.212c0,0,0.212-1.697,0.212-3.712v-6.257h-12.938V103.262z M390.138,103.262h13.469V49.175
	h-13.469V103.262z M359.277,86.399c0,15.483,9.227,17.393,16.65,17.393c2.227,0,4.242-0.318,4.242-0.318V91.702
	c0,0-0.955,0.106-2.015,0.106c-3.5,0-5.515-1.485-5.515-7.424v-56.42h-13.362V86.399z M308.266,76.537
	c0-11.984,6.575-17.074,13.575-17.074c7.954,0,13.469,6.681,13.469,16.968c0,10.711-6.151,16.756-13.575,16.756
	C312.826,93.187,308.266,84.915,308.266,76.537 M295.222,124.472h13.469v-22.695c0-2.757-0.212-4.666-0.212-4.666h0.212
	c0,0,4.772,7.424,15.483,7.424c14.211,0,24.71-11.135,24.71-28.316c0-16.756-9.333-28.316-23.968-28.316
	c-12.726,0-17.392,8.908-17.392,8.908h-0.212c0,0,0.212-1.697,0.212-3.712v-3.924h-12.302V124.472z M247.608,87.036
	c0-7.53,11.135-8.484,18.029-8.484h2.333v1.273c0,6.575-5.091,14.211-12.196,14.211C250.259,94.035,247.608,90.641,247.608,87.036
	 M234.034,87.672c0,10.817,8.696,16.862,18.347,16.862c12.302,0,16.544-9.545,16.438-9.545h0.212c0,0-0.212,1.697-0.212,3.818v4.454
	h12.408v-33.83c0-13.681-8.272-21.528-22.483-21.528c-12.832,0-21.21,6.681-21.21,6.681l5.09,9.651c0,0,7.105-5.197,14.847-5.197
	c5.939,0,10.393,2.439,10.393,9.545v0.742h-1.803C257.259,69.325,234.034,70.492,234.034,87.672 M176.235,94.247
	c0,0,9.227,10.287,25.983,10.287c15.696,0,24.816-10.075,24.816-22.059c0-24.074-35.421-20.786-35.421-34.149
	c0-5.303,4.984-9.014,11.348-9.014c9.439,0,16.65,6.575,16.65,6.575l5.939-11.135c0,0-7.636-8.06-22.483-8.06
	c-14.423,0-25.24,9.333-25.24,21.847c0,23.119,35.527,20.786,35.527,34.255c0,6.151-5.197,9.12-10.923,9.12
	c-10.605,0-18.771-7.954-18.771-7.954L176.235,94.247z"/>
<circle style="fill:#FFFFFF;" cx="396.812" cy="33.277" r="6.745"/>
<circle style="fill:#FFFFFF;" cx="851.112" cy="33.277" r="6.745"/>
</svg>
