<?xml version="1.0" encoding="utf-8"?>
<!-- Generator: Adobe Illustrator 20.1.0, SVG Export Plug-In . SVG Version: 6.00 Build 0)  -->
<svg version="1.1" id="Layer_1" xmlns="http://www.w3.org/2000/svg" xmlns:xlink="http://www.w3.org/1999/xlink" x="0px" y="0px"
	 viewBox="0 0 1205 200" style="enable-background:new 0 0 1205 200;" xml:space="preserve">
<style type="text/css">
	.st0{fill:#58A618;}
	.st1{fill:#FFFFFF;}
	.st2{fill:#4E4E4E;}
</style>
<path class="st0" d="M143.8,161.6C108.1,200.7,3.2,179,3.2,179S-11,66.4,20.5,37.4C60.1,0.9,161.1,20,161.1,20
	S179.6,122.4,143.8,161.6"/>
<g>
	<path class="st1" d="M140.5,117.4c0-29-20.8-31.8-36.5-19c-10,8.2-22.9,23.1-22.9,8.9c0-33.6-33.6-18.7-55.7,10.1l0,31.1
		c22.2-28.8,55.7-43.6,55.7-10c0,14.2,12.9-0.7,22.9-8.9c14.3-11.7,32.7-10.5,36,11.6h0.5C140.5,141.1,140.5,117.4,140.5,117.4z"/>
	<path class="st1" d="M140.5,76.6c0-29-20.8-31.9-36.5-18.9c-10,8.2-22.9,23.1-22.9,9c0-33.6-33.6-18.7-55.7,10v29.5
		c22.7-27.1,55.7-42,55.7-8.4c0,14.2,12.9-0.8,22.9-8.9c14.3-11.7,32.7-10.5,36,11.5h0.5C140.5,100.3,140.5,76.6,140.5,76.6z"/>
</g>
<path class="st0" d="M1171.4,125.7c-10.6,0-16.5-8.5-16.5-20c0-11.1,5.6-18.4,15.5-18.4c8.9,0,16.3,4,16.3,19
	C1186.6,121.2,1179.3,125.7,1171.4,125.7 M1149.4,149.7l-4.9,12.5c6.3,3.4,15.1,5.7,23.4,5.7c17.2,0,34.8-8.5,34.8-31.1V74.9h-15.4
	v5c0,1,0.1,1.8,0.1,1.8h-0.4c0,0-5.2-8.4-19.5-8.4c-19,0-29.2,14.7-29.2,32.8s10.7,33.3,29.6,33.3c8.8,0,14.5-3.1,18.4-8.9h0.3
	c0,0-0.3,1.9-0.3,3.5v3.9c0,11.8-8.5,16-18.6,16C1157.7,154,1149.4,149.7,1149.4,149.7 M1063.5,140.8h16.4v-30.2
	c0-3.1,0.3-6.1,1.2-8.8c2.5-7.9,8.9-13.4,17.7-13.4c8.4,0,10.5,5.4,10.5,13.4v39h16.3V98.4c0-17.4-8.3-25.1-22.9-25.1
	c-13.3,0-20.5,8.1-23.4,13.7h-0.3c0,0,0.3-2.1,0.3-4.5v-7.6h-15.8L1063.5,140.8L1063.5,140.8z M1029,140.8h16.4V74.9H1029V140.8z
	 M949.7,140.8h16.4v-30.2c0-3.1,0.3-6.1,1.2-8.8c2.5-7.9,8.9-13.4,17.7-13.4c8.4,0,10.5,5.4,10.5,13.4v39h16.3V98.4
	c0-17.4-8.3-25.1-22.9-25.1c-13.3,0-20.5,8.1-23.4,13.7h-0.3c0,0,0.3-2.1,0.3-4.5v-7.6h-15.8V140.8z M899,140.8h16.4v-26.1
	c0-3.9,0.4-7.5,1.4-10.7c3.1-9.8,11-13.8,18-13.8c2.2,0,3.9,0.3,3.9,0.3V74.3c0,0-1.4-0.3-3-0.3c-10.1,0-18,7.5-20.9,16.9h-0.3
	c0,0,0.3-2.2,0.3-4.7V74.9H899L899,140.8L899,140.8z M840.9,121.1c0-9.2,13.6-10.3,22-10.3h2.8v1.6c0,8-6.2,17.3-14.9,17.3
	C844.2,129.6,840.9,125.4,840.9,121.1 M824.4,121.8c0,13.2,10.6,20.5,22.4,20.5c15,0,20.2-11.6,20-11.6h0.3c0,0-0.3,2.1-0.3,4.7v5.4
	h15.1V99.6c0-16.7-10.1-26.2-27.4-26.2c-15.6,0-25.8,8.1-25.8,8.1l6.2,11.8c0,0,8.7-6.3,18.1-6.3c7.2,0,12.7,3,12.7,11.6v0.9h-2.2
	C852.7,99.5,824.4,100.9,824.4,121.8 M771,99.7c1.6-8.5,7.4-13.7,15.8-13.7c7.2,0,12.8,4.8,13.1,13.7H771z M753.7,107.9
	c0,18.7,13.6,34.5,35.4,34.5c16.4,0,26.5-9.4,26.5-9.4l-6.3-11.8c0,0-8.4,7.2-19,7.2c-9.8,0-18.7-5.9-19.8-17.4H816
	c0,0,0.4-4.4,0.4-6.3c0-17.4-10.2-31.3-29.2-31.3C767.5,73.4,753.7,87.6,753.7,107.9 M691.3,140.8h56.3v-14.3H708V49.1h-16.7V140.8z
	"/>
<path class="st2" d="M617.8,125.7c-10.6,0-16.5-8.5-16.5-20c0-11.1,5.6-18.4,15.5-18.4c8.9,0,16.3,4,16.3,19
	C633.1,121.2,625.7,125.7,617.8,125.7 M595.8,149.7l-4.9,12.5c6.3,3.4,15.1,5.7,23.4,5.7c17.2,0,34.8-8.5,34.8-31.1V74.9h-15.4v5
	c0,1,0.1,1.8,0.1,1.8h-0.4c0,0-5.2-8.4-19.5-8.4c-19,0-29.2,14.7-29.2,32.8s10.7,33.3,29.6,33.3c8.8,0,14.5-3.1,18.4-8.9h0.3
	c0,0-0.3,1.9-0.3,3.5v3.9c0,11.8-8.5,16-18.6,16C604.1,154,595.8,149.7,595.8,149.7 M509.9,140.8h16.4v-30.2c0-3.1,0.3-6.1,1.2-8.8
	c2.5-7.9,8.9-13.4,17.7-13.4c8.4,0,10.5,5.4,10.5,13.4v39h16.3V98.4c0-17.4-8.3-25.1-22.9-25.1c-13.3,0-20.5,8.1-23.4,13.7h-0.3
	c0,0,0.3-2.1,0.3-4.5v-7.6h-15.8L509.9,140.8L509.9,140.8z M475.4,140.8h16.4V74.9h-16.4V140.8z M437.8,120.3
	c0,18.9,11.2,21.2,20.3,21.2c2.7,0,5.2-0.4,5.2-0.4v-14.3c0,0-1.2,0.1-2.5,0.1c-4.3,0-6.7-1.8-6.7-9V49.1h-16.3L437.8,120.3
	L437.8,120.3z M375.6,108.3c0-14.6,8-20.8,16.5-20.8c9.7,0,16.4,8.1,16.4,20.7c0,13.1-7.5,20.4-16.5,20.4
	C381.2,128.6,375.6,118.5,375.6,108.3 M359.7,166.7h16.4V139c0-3.4-0.3-5.7-0.3-5.7h0.3c0,0,5.8,9,18.9,9
	c17.3,0,30.1-13.6,30.1-34.5c0-20.4-11.4-34.5-29.2-34.5c-15.5,0-21.2,10.9-21.2,10.9h-0.3c0,0,0.3-2.1,0.3-4.5v-4.8h-15V166.7z
	 M301.7,121.1c0-9.2,13.6-10.3,22-10.3h2.8v1.6c0,8-6.2,17.3-14.9,17.3C305,129.6,301.7,125.4,301.7,121.1 M285.2,121.8
	c0,13.2,10.6,20.5,22.4,20.5c15,0,20.2-11.6,20-11.6h0.3c0,0-0.3,2.1-0.3,4.7v5.4h15.1V99.6c0-16.7-10.1-26.2-27.4-26.2
	c-15.6,0-25.8,8.1-25.8,8.1l6.2,11.8c0,0,8.7-6.3,18.1-6.3c7.2,0,12.7,3,12.7,11.6v0.9h-2.2C313.5,99.5,285.2,100.9,285.2,121.8
	 M214.7,129.8c0,0,11.2,12.5,31.7,12.5c19.1,0,30.2-12.3,30.2-26.9c0-29.3-43.2-25.3-43.2-41.6c0-6.5,6.1-11,13.8-11
	c11.5,0,20.3,8,20.3,8l7.2-13.6c0,0-9.3-9.8-27.4-9.8c-17.6,0-30.8,11.4-30.8,26.6c0,28.2,43.3,25.3,43.3,41.7
	c0,7.5-6.3,11.1-13.3,11.1c-12.9,0-22.9-9.7-22.9-9.7L214.7,129.8z"/>
<circle class="st2" cx="483.5" cy="55.5" r="8.2"/>
<circle class="st0" cx="1037.1" cy="55.5" r="8.2"/>
</svg>
